<mxfile modified="2022-01-15T07:58:25.838Z" host="app.diagrams.net" agent="5.0 (Windows NT 10.0; Win64; x64) AppleWebKit/537.36 (KHTML, like Gecko) Chrome/97.0.4692.71 Safari/537.36" etag="GH4hToHV_C3G3LC9VzIE" version="16.2.6" type="github">
  <diagram id="Ht1M8jgEwFfnCIfOTk4-" name="Page-1">
    <mxGraphModel dx="4103" dy="1192" grid="0" gridSize="10" guides="1" tooltips="1" connect="1" arrows="1" fold="1" page="0" pageScale="1" pageWidth="1169" pageHeight="827" math="0" shadow="0">
      <root>
        <mxCell id="0" />
        <mxCell id="1" parent="0" />
        <mxCell id="1YSa0I2nqgG9bHJwrjVr-69" value="" style="shape=callout;whiteSpace=wrap;html=1;perimeter=calloutPerimeter;comic=0;fillColor=#FFFFFF;rotation=-180;base=354;size=61;position=0.25;position2=0.64;dashed=1;" parent="1" vertex="1">
          <mxGeometry x="1246" y="661" width="917" height="307.5" as="geometry" />
        </mxCell>
        <mxCell id="1YSa0I2nqgG9bHJwrjVr-27" value="" style="ellipse;whiteSpace=wrap;html=1;fillColor=#FFFFFF;dashed=1;" parent="1" vertex="1">
          <mxGeometry x="1394" y="265" width="765" height="185" as="geometry" />
        </mxCell>
        <mxCell id="1YSa0I2nqgG9bHJwrjVr-7" style="edgeStyle=orthogonalEdgeStyle;rounded=0;orthogonalLoop=1;jettySize=auto;html=1;entryX=0.5;entryY=0;entryDx=0;entryDy=0;" parent="1" source="1YSa0I2nqgG9bHJwrjVr-5" edge="1">
          <mxGeometry relative="1" as="geometry">
            <mxPoint x="-2518" y="159" as="targetPoint" />
          </mxGeometry>
        </mxCell>
        <mxCell id="1YSa0I2nqgG9bHJwrjVr-5" value="用户登录" style="rounded=0;whiteSpace=wrap;html=1;" parent="1" vertex="1">
          <mxGeometry x="-2578" y="28" width="120" height="60" as="geometry" />
        </mxCell>
        <mxCell id="1YSa0I2nqgG9bHJwrjVr-11" value="用户业务" style="rounded=0;whiteSpace=wrap;html=1;" parent="1" vertex="1">
          <mxGeometry x="-2578" y="317" width="120" height="60" as="geometry" />
        </mxCell>
        <mxCell id="1YSa0I2nqgG9bHJwrjVr-16" value="mysql" style="text;html=1;align=center;verticalAlign=middle;resizable=0;points=[];autosize=1;strokeColor=none;fillColor=none;" parent="1" vertex="1">
          <mxGeometry x="1339.5" y="871.5" width="41" height="18" as="geometry" />
        </mxCell>
        <mxCell id="1YSa0I2nqgG9bHJwrjVr-17" value="" style="sketch=0;outlineConnect=0;fontColor=#232F3E;gradientColor=none;fillColor=#000000;strokeColor=none;dashed=0;verticalLabelPosition=bottom;verticalAlign=top;align=center;html=1;fontSize=12;fontStyle=0;aspect=fixed;pointerEvents=1;shape=mxgraph.aws4.iot_analytics_data_store;" parent="1" vertex="1">
          <mxGeometry x="1333" y="781.5" width="54" height="78" as="geometry" />
        </mxCell>
        <mxCell id="1YSa0I2nqgG9bHJwrjVr-18" value="" style="sketch=0;outlineConnect=0;fontColor=#232F3E;gradientColor=none;fillColor=#333333;strokeColor=none;dashed=0;verticalLabelPosition=bottom;verticalAlign=top;align=center;html=1;fontSize=12;fontStyle=0;aspect=fixed;shape=mxgraph.aws4.blockchain_resource;" parent="1" vertex="1">
          <mxGeometry x="1597.5" y="342.75" width="78" height="23" as="geometry" />
        </mxCell>
        <mxCell id="1YSa0I2nqgG9bHJwrjVr-19" value="" style="rounded=0;whiteSpace=wrap;html=1;fillColor=#FFFFFF;" parent="1" vertex="1">
          <mxGeometry x="1484.5" y="314.5" width="116" height="79.5" as="geometry" />
        </mxCell>
        <mxCell id="1YSa0I2nqgG9bHJwrjVr-20" value="" style="sketch=0;outlineConnect=0;fontColor=#232F3E;gradientColor=none;fillColor=#333333;strokeColor=none;dashed=0;verticalLabelPosition=bottom;verticalAlign=top;align=center;html=1;fontSize=12;fontStyle=0;aspect=fixed;shape=mxgraph.aws4.blockchain_resource;" parent="1" vertex="1">
          <mxGeometry x="1786.5" y="345" width="78" height="23" as="geometry" />
        </mxCell>
        <mxCell id="1YSa0I2nqgG9bHJwrjVr-21" value="" style="rounded=0;whiteSpace=wrap;html=1;fillColor=#FFFFFF;" parent="1" vertex="1">
          <mxGeometry x="1673.5" y="316.75" width="116" height="79.5" as="geometry" />
        </mxCell>
        <mxCell id="1YSa0I2nqgG9bHJwrjVr-26" value="" style="rounded=0;whiteSpace=wrap;html=1;fillColor=#FFFFFF;" parent="1" vertex="1">
          <mxGeometry x="1861.5" y="314.5" width="116" height="79.5" as="geometry" />
        </mxCell>
        <mxCell id="1YSa0I2nqgG9bHJwrjVr-28" value="区块链" style="text;html=1;align=center;verticalAlign=middle;resizable=0;points=[];autosize=1;strokeColor=none;fillColor=none;" parent="1" vertex="1">
          <mxGeometry x="1708.5" y="420.75" width="46" height="18" as="geometry" />
        </mxCell>
        <mxCell id="1YSa0I2nqgG9bHJwrjVr-30" value="后端" style="text;html=1;align=center;verticalAlign=middle;resizable=0;points=[];autosize=1;strokeColor=none;fillColor=none;" parent="1" vertex="1">
          <mxGeometry x="1494.5" y="924.5" width="34" height="18" as="geometry" />
        </mxCell>
        <mxCell id="1YSa0I2nqgG9bHJwrjVr-38" value="" style="endArrow=classic;startArrow=classic;html=1;rounded=0;strokeWidth=4;" parent="1" edge="1">
          <mxGeometry width="50" height="50" relative="1" as="geometry">
            <mxPoint x="1403" y="819.97" as="sourcePoint" />
            <mxPoint x="1473" y="819.5" as="targetPoint" />
          </mxGeometry>
        </mxCell>
        <mxCell id="1YSa0I2nqgG9bHJwrjVr-40" value="" style="endArrow=classic;html=1;rounded=0;strokeWidth=4;" parent="1" edge="1">
          <mxGeometry width="50" height="50" relative="1" as="geometry">
            <mxPoint x="1795" y="811.97" as="sourcePoint" />
            <mxPoint x="1679" y="811.97" as="targetPoint" />
          </mxGeometry>
        </mxCell>
        <mxCell id="1YSa0I2nqgG9bHJwrjVr-41" value="" style="shape=image;verticalLabelPosition=bottom;labelBackgroundColor=default;verticalAlign=top;aspect=fixed;imageAspect=0;image=data:image/png,iVBORw0KGgoAAAANSUhEUgAAAZAAAAGQCAMAAAC3Ycb+AAACLlBMVEVMaXFBuINBuIM8enI/nnxBuINBuINBuIM8enJBuIM8enJBuINBuINBuIM8enJBuIM8enJBuINBuIM7eXFBuINBuIM8eXFBuINBuIM8eHFBuIM8eXFBuIM8eHBBuIM8eHBBuIM8d3BBuINBuIM8d3BBuINBuINBuIM8dnBBuINBuIM8dnBBuINBuIM7dXBBuINBuIM8dG9BuINBuIM8dG9BuIM8dG9BuINBuIM8c29BuINBuIM7cm5BuINBuIM7cW5BuIM7cW9BuINBuINBuIM7cW5BuINBuINBuIM7b21BuINBuIM6b21BuIM7bm1BuINBuIM7bW1BuINBuIM6bGxBuINBuIM6a2xBuIM6a2xBuINBuIM6amxBuIM6aWtBuINBuIM6aGpBuINBuIM6ZmpBuINBuIM5ZGlBuIM5Y2lBuINBuIM5YWhBuINBuIM5YGdBuIM4XmdBuINBuIM4XGZBuINBuIM4WmVBuIM3WGRBuIM3V2RBuINBuIM3VGNBuIM2UmI2UGFBuIM1TWA1SV41Sl41S141TF81TWA2T2A2UWE2U2I3VWM3WGQ4W2U4Xmc5YGc5YWg5ZGk6Zmo6Z2o6aGo6a2w7bW07bm07cG48c287dnA7eHA8enI8fHI9fnM8gXM9g3Q9hnU9iXY+i3c+jHc+j3g+kXk+lHo/l3o/mXs+m3s/nnw/oH0/o31Apn5BqH5Aqn9BrH9BroBBr4BCsYBBs4FBtoJCt4JBuIP7mHZoAAAAhHRSTlMAAQICAwQHCAgLDQ4QEhIVFhcaGh4hIiUoKissLzEzNDc4Oj4/QERFRkhLTVBTVldaXV5iYmZnaW1vcHV3eHx8gIGDhIeJio+Sk5aZm52foaWmqKyusLS1t7m6u7y/wMLHx8zP0NPW1trc3uLi5Obn6urt7+/y8/T29vf4+vv7/P39/v7L5yYnAAAKeElEQVR42uzBgQAAAADDoPtTH2TVAAAAAAAAAAAAAMg6NfegXmu6BVG4tm3btm3btm1bM3bOtm17Xt1pu5OlkfT3v7cxnqp1zio0SFovlZleaQYp/O6odWp90VGv0wxyWGXmsEHSXjvqYmtplrNuGGWKysgUo9xw1ixJ9Q456kOWQc7WVJmoedYgWR8cdaieJI101gOjrFCZWGGU+84aqZ9U2eqob3kGudRG4rW5ZJC8b47aWkU/6+Gs50bZIfF2GOW5s3roV0ud9T+jDBZusFGKnbVUv2l22lFv0w1yrJJglY4ZJP2to0430++mOuuWUWYLNtsot5w1VX+otd9Rn3MMcr6RUI3OGyT7s6P219KfDHLWI6NsEGqDUR45a5D+rOJGR33LN0hGZ4E6Zxgk/5ujNlbUX3R01kuj7BNon1FeOquj/ma+s64aZbQwo41y1Vnz9XcNjzvqfaZBTlUXpPopg2S+d9TxhvqHsc66a5TFgiw2yl1njdU/VdvpqK+5BslqKkTTLIPkfnHUzmr6F32c9dQo24TYZpSnzuqjf7XGWUUGSesrQN80gxQ5a43+XetzjnoTVs0Nttuea60SzIx+zY1it52pktSBa+5HrubWVYrqct32I9xt66hEw4OtuauVotVGeeCs4SpZuDU3s51S0i4z1G67pYpK0S3YmrtbKdkdbLftqlItcdZlowxVCoYa5bKzlqh0TeCa+y7DICeqKGlVThgk4x3cbZsohsnOum2UuUraXKPcdtZkxVJrL1xzsw1yoZGS1OhCqN12bw3FNDA6NTf63XagYquw3lHfCwyS3l1J6Z5ukILvjlpfQXFo76xXRjmgpBwwyitntVdc5jnrmlHGKQnjjHLNWfMUn4ZHAxgoADWX7rZZcLc92lBxGuOse3zN/S+67T1njVG8qoZbc1soQS24bvsV7rZVFbfeznrG19zod9veSsAqZxXzNbe8u22xs1YqES3DrbmVlIBKXLd9A3fblkrIdGfdNMoMJWCGUW46a7oSU+egoz5lG+R8XcWtLjc++OSog3WUoGHB1ty1itvaYLvtMCWqypZgBwodFKcOwY4PtlRWwro460X519zdRnnhrC5KwiJnXTHKCMVlhFGuOGuRktHkZLRrbrjd9mQTJWWSs+4YZYHisCDYbjtRyamxx1FfcrCa21QxNcW6bc4XR+2poST1d9Zjo2xWTJuN8thZ/ZW44GtuL8XQK+Rum7S2wd7NHSi3bpsGd9uLbZWCOc66bpQJKtUEo1x31hylosGRaN7NhXsad6SBUjLKWfeNskylWBZstx2l1FTdDtfcPINktVKJWmUZJA/utturKkU9g625O8rjNO6Zs3oqZcuDrbkDVIIBwXbb5Upd8zNRu5sL9zTuTHMBpgV7Nzcjat12mgi19wdbc+vrX9QPttvuryXEEGc9LNuBwgajPHTWEDEqborS3Vy4p3GbKgrSKUp3c7uDPY3rJMzCYO/mRkSn2y4Up/FxuubSAwV+fEB32+ONBRoffs2lu+0dZ40XqdouR32B7+bCP43bVU2ofs56wtdctts+cVY/sX5g7w4wAoECKIoaALPuwRACIZIgEATR7trEw/ndf7fxeOcPjof52Nc4Hg/zsa9tPB7mY1/bfDzMx76m+XiYj31t8/EwH/ua5uNhPva1zMfDfOxrmY+H+djXNB8POwP7WjfHw3Zrro99TfPxMB/7mubjYT72tc3Hw3zsa5uPh/nY1zQfD/Oxr20+HuZjX9N8PMzHvrb5eJiPfU3z8TAf+9rm42E+9rXNx8N87Guaj4f52Nc2Hw/zsa/AmtvabX08zMe+9vl4mI997fPxMB/7muXjYT72NcjHw1jsa7/bHoyH+djXPvpuzj+N2+bjYT72tc3Hw3zsa5qPh/nY1zYfD/Oxr2k+HuZjX9t8PMzHvqb5eJiPfW3z8TAf+9rm42E+9jXKx8N87GuQj4f52NcgHw/zsa9BPh4GY19AAB7mYF9AAB4GYV9AAB7mYF9AAB4GYV9AAB6GY193zQ3sthIeBmNfQAAe5mBfQAAeBmFfQAAe5mBfQAAeBmFfQAAe5mBfQAAe5mBfQAAeBmFfQAAe5mBfQAAeBmFfQAAe5mBfQAAeBmFfQAAe5mBfQAAe5mBfQAAeBmFfQAAe5mBfQAAeBmFfQAAepmNfg3w8bNDjN459hfCwM7CvEh52AvaVwsNOwb58PGzWG4V93bs5/zSuhYf52FcLD/Oxrxge5mNfLTzMx75ieJiPfbXwMB/7iuFhPvbVwsN87KuFh/nYVwwP87GvFh7mY18xPOzhy8e+UniYj3218DAf+2rhYT72FcPDfOyrhYf52FcAD0Owr7vm3t3Wx8N87KuFh/nYVwsP87GvGB7mY18tPMzHvgJ4mIt93bs5/zQuhof52FcLD/OxrxYe9v/Tx75SeJiPfbXwMB/7+j142HsO+/LxsBj25eNhNezLx8Ni2JePh9WwLx8Pi2FfPh5Ww758PKyGffl4WAz78vGw87GvCB724mNfATwsgH35eJiGfd019+62Ph7278PHvlJ4mI99ZfCwAPbl42GvNezLx8Nq2JePh9WwLx8Pi2FfPh7Wwr58POzZxr78/u7xsBj25eNhMezLx8Ni2JePhx2IfQXwsCcf+0rhYT72FcPDfOyrhYf52FcMD8OxL781HuZjXzE8zMe+aniYj33F8DAf+yrhYRj2de/m7mmciIf52FcND/Oxrxge5mNfDTwMw77umnt3WxcP87GvGB7mY181PMzHvkp4mI99BfCwn/bu6UoSAACi6CqPtW2NbZtxdnaTRON93JdGnVMX9tXCw2BfMTwM9tXCw2BfLTwM9hXDw2BfLTwM9hXDw2BfUTwM9pVec+22Q+jVYAjFsC94WAv7gofFsC94WAv7gofFsC94WAD7cjfnNK6Ch8G+WngY7CuGh8G+WngY7CuJh/WxL3gY7GvYXQyGUAD7gofBvgJ4GOyrhof1sS94GOxr2D0aAh4WwL7gYbCvBh7Wx77gYbCvYbcwGEIB7AseFsC+4GGwr8Caa7dt4GGwrxYeBvuK4WGwrxYeBvuK4WGwrxYeBvtq4WGwrxgeBvuq4WGwr8DdnNO4Kh4G+4rhYbCvFh4G+2rhYbCvHh7Wx77gYX3sCx7Wx77gYbCvYXcL+6rhYS3sS5uwrzAeFsC+9K+Gfbmba53G6W0M+9IJ7KuGh7WwL63UsC9rbmu31XfYVw0Pa2FfehbDvrRXw77gYS3sSzM17Ase1sK+9DGGfem6hn3Bw1rYlzZq2Bc8rIV96U8Y+7Lm2m0DvYphXzquYV/wsBb2paUa9gUPa2Ff+hbGvtzNOY0L9AT2FWsX9hXGw2BfgaZhX2E8DPYV6APsK9YF7CuMh8G+Aq3BvsJ4GOwr0G/YVxgPg30Fegn7inUI+wrjYbCvQAuwrzAeBvsK9AX21V9z7bYZPAz2FWgb9hXGw2Bfgf7DvsJ4GOwr0DvYV6wz2FcXD4N9FVqFfVXv5pzGNfrZxL7gYbCvSs9hX7EOetgXPAz2VWquhn3Bw2BfrT7DviRJkiRJkiRJkiRJkiRJkiQNszucKAuToL+DiQAAAABJRU5ErkJggg==;" parent="1" vertex="1">
          <mxGeometry x="1886.25" y="785" width="84" height="84" as="geometry" />
        </mxCell>
        <mxCell id="1YSa0I2nqgG9bHJwrjVr-42" value="vue" style="text;html=1;align=center;verticalAlign=middle;resizable=0;points=[];autosize=1;strokeColor=none;fillColor=none;" parent="1" vertex="1">
          <mxGeometry x="1913.75" y="882" width="29" height="18" as="geometry" />
        </mxCell>
        <mxCell id="1YSa0I2nqgG9bHJwrjVr-43" value="" style="image;html=1;image=img/lib/clip_art/computers/Monitor_128x128.png;comic=0;fillColor=#FFFFFF;" parent="1" vertex="1">
          <mxGeometry x="1553.25" y="41" width="102" height="96" as="geometry" />
        </mxCell>
        <mxCell id="1YSa0I2nqgG9bHJwrjVr-44" value="节点一" style="text;html=1;align=center;verticalAlign=middle;resizable=0;points=[];autosize=1;strokeColor=none;fillColor=none;" parent="1" vertex="1">
          <mxGeometry x="1578" y="160" width="46" height="18" as="geometry" />
        </mxCell>
        <mxCell id="1YSa0I2nqgG9bHJwrjVr-45" value="" style="image;html=1;image=img/lib/clip_art/computers/Monitor_128x128.png;comic=0;fillColor=#FFFFFF;" parent="1" vertex="1">
          <mxGeometry x="1929" y="47" width="102" height="96" as="geometry" />
        </mxCell>
        <mxCell id="1YSa0I2nqgG9bHJwrjVr-46" value="节点二" style="text;html=1;align=center;verticalAlign=middle;resizable=0;points=[];autosize=1;strokeColor=none;fillColor=none;" parent="1" vertex="1">
          <mxGeometry x="1963" y="169" width="46" height="18" as="geometry" />
        </mxCell>
        <mxCell id="1YSa0I2nqgG9bHJwrjVr-47" value="" style="image;html=1;image=img/lib/clip_art/computers/Monitor_128x128.png;comic=0;fillColor=#FFFFFF;" parent="1" vertex="1">
          <mxGeometry x="1476" y="561" width="102" height="96" as="geometry" />
        </mxCell>
        <mxCell id="1YSa0I2nqgG9bHJwrjVr-48" value="节点三" style="text;html=1;align=center;verticalAlign=middle;resizable=0;points=[];autosize=1;strokeColor=none;fillColor=none;" parent="1" vertex="1">
          <mxGeometry x="1510" y="683" width="46" height="18" as="geometry" />
        </mxCell>
        <mxCell id="1YSa0I2nqgG9bHJwrjVr-49" value="" style="shape=image;verticalLabelPosition=bottom;labelBackgroundColor=default;verticalAlign=top;aspect=fixed;imageAspect=0;image=data:image/png,iVBORw0KGgoAAAANSUhEUgAAAOEAAADhCAYAAAA+s9J6AAAACXBIWXMAABYlAAAWJQFJUiTwAAAE7mlUWHRYTUw6Y29tLmFkb2JlLnhtcAAAAAAAPD94cGFja2V0IGJlZ2luPSLvu78iIGlkPSJXNU0wTXBDZWhpSHpyZVN6TlRjemtjOWQiPz4gPHg6eG1wbWV0YSB4bWxuczp4PSJhZG9iZTpuczptZXRhLyIgeDp4bXB0az0iQWRvYmUgWE1QIENvcmUgNy4xLWMwMDAgNzkuYTg3MzFiOSwgMjAyMS8wOS8wOS0wMDozNzozOCAgICAgICAgIj4gPHJkZjpSREYgeG1sbnM6cmRmPSJodHRwOi8vd3d3LnczLm9yZy8xOTk5LzAyLzIyLXJkZi1zeW50YXgtbnMjIj4gPHJkZjpEZXNjcmlwdGlvbiByZGY6YWJvdXQ9IiIgeG1sbnM6eG1wPSJodHRwOi8vbnMuYWRvYmUuY29tL3hhcC8xLjAvIiB4bWxuczpkYz0iaHR0cDovL3B1cmwub3JnL2RjL2VsZW1lbnRzLzEuMS8iIHhtbG5zOnBob3Rvc2hvcD0iaHR0cDovL25zLmFkb2JlLmNvbS9waG90b3Nob3AvMS4wLyIgeG1sbnM6eG1wTU09Imh0dHA6Ly9ucy5hZG9iZS5jb20veGFwLzEuMC9tbS8iIHhtbG5zOnN0RXZ0PSJodHRwOi8vbnMuYWRvYmUuY29tL3hhcC8xLjAvc1R5cGUvUmVzb3VyY2VFdmVudCMiIHhtcDpDcmVhdG9yVG9vbD0iQWRvYmUgUGhvdG9zaG9wIDIzLjAgKFdpbmRvd3MpIiB4bXA6Q3JlYXRlRGF0ZT0iMjAyMi0wMS0xNFQxNjoyNDozMSswODowMCIgeG1wOk1vZGlmeURhdGU9IjIwMjItMDEtMTRUMTY6MjY6NDErMDg6MDAiIHhtcDpNZXRhZGF0YURhdGU9IjIwMjItMDEtMTRUMTY6MjY6NDErMDg6MDAiIGRjOmZvcm1hdD0iaW1hZ2UvcG5nIiBwaG90b3Nob3A6Q29sb3JNb2RlPSIzIiB4bXBNTTpJbnN0YW5jZUlEPSJ4bXAuaWlkOjNmMWI3ZmI3LWIzZjgtY2I0MC1hYTA3LTNlMTIyYTJmZDc4MyIgeG1wTU06RG9jdW1lbnRJRD0ieG1wLmRpZDozZjFiN2ZiNy1iM2Y4LWNiNDAtYWEwNy0zZTEyMmEyZmQ3ODMiIHhtcE1NOk9yaWdpbmFsRG9jdW1lbnRJRD0ieG1wLmRpZDozZjFiN2ZiNy1iM2Y4LWNiNDAtYWEwNy0zZTEyMmEyZmQ3ODMiPiA8eG1wTU06SGlzdG9yeT4gPHJkZjpTZXE+IDxyZGY6bGkgc3RFdnQ6YWN0aW9uPSJjcmVhdGVkIiBzdEV2dDppbnN0YW5jZUlEPSJ4bXAuaWlkOjNmMWI3ZmI3LWIzZjgtY2I0MC1hYTA3LTNlMTIyYTJmZDc4MyIgc3RFdnQ6d2hlbj0iMjAyMi0wMS0xNFQxNjoyNDozMSswODowMCIgc3RFdnQ6c29mdHdhcmVBZ2VudD0iQWRvYmUgUGhvdG9zaG9wIDIzLjAgKFdpbmRvd3MpIi8+IDwvcmRmOlNlcT4gPC94bXBNTTpIaXN0b3J5PiA8L3JkZjpEZXNjcmlwdGlvbj4gPC9yZGY6UkRGPiA8L3g6eG1wbWV0YT4gPD94cGFja2V0IGVuZD0iciI/Pp8b6uEAAE4ISURBVHic7X19fFPl2f/3Tk4b6AulKdBaAlQqSKABXxPm1C3iKsapM9XJ3OKDdOqzOre439zc6rOKc8+66aNdVdzqrG5MFzbLnDqCb6nzBVMsiIHRBScp0JQGSt/SliTn5Fy/P5ITT0MKiGBoe76fz/VJcnJe7nPnfHNd93Vd93UzIoICBQrSB1W6G6BAwUSHQkIFCtIMhYQKFKQZCgkVKEgzFBIqUJBmKCRUoCDNUEioQEGaoZBQgYI0QyGhAgVphkJCBQrSDIWEChSkGQoJFShIMxQSKlCQZigkVKAgzVBIqEBBmqGQUIGCNEMhoQIFaYZCQgUK0gyFhAoUpBkKCRUoSDMUEipQkGYoJFSgIM1QSKhAQZqhkFCBgjRDIaECBWmGQkIFCtIMhYQKFKQZCgkVKEgzuHQ34POEtPhNNBpVcRynAqARBIGp1WowxkgQBEGtVkei0Shx3ITqGgVpBJsoqzLJ7pMxxgoOHTp00e9///sLu7q6ZgIQFy5c6L/lllve5zjuTQBDsUMIjLF0NVnBBMGEMUclMjHG1Nu3b79k2rRptr179375Jz/5SelPfvKT+Rs3brQUFha+1N/ffyWAyQoBFXxuIKIJIaIoSu+zKysrHwXQSUQ9RBSKSw8Aqq+v/wURZRMReJ5Pe7sVGf8yoQY+RATGGK/RaA5XVVVxt9xyS3Y0Gs0oKChgiI+PA4FAFtHEMNEVnB6YMCRkjCFOLuHqq6/edPXVV5cLgpAPQLI51QAwZ86cHsYYEwQBinNGweeBCTMmjGtBABCXL1+++Rvf+MbrAHoBjCDbVVddtRdxYioaUcHngQlDQkkTxmX/H//4x79UV1e/DiAs36+4uPgjIoJarVZFo1EIgjDCfhcEYcQ2BQo+K9T33XdfuttwSiDTfAlIn6PRKBhj+5ctW5Zz8ODBC1paWqZK+8yZM6dw3rx5EY1Gs0elUmUwxjSRSEQTjUYncRynYoxFiQgqleqI8ypQcCIYt4OeVMSQEzMajYLjuEh+fn4UiJmkgiBg1apVy9euXXueTqf78fDwcAQACwaDKo7jVPPnz2+sqan5fV5e3nA0GkU8yP+53peC8YcJEayX7jFOPAiCoOI47pzm5ubbLrvssm8CyNHpdNTV1cUEQUBRUdHhFStWBPPy8qKrV6+eDCAbQAaAzS6Xy2Y2m3cJggC1Wj3iOgohFZwIJsyYMBKJAICKiCZzHHfRunXrKi+77LKrAeQAQEdHBxMEAQBw3nnnaa644op8ANMBTEWMgABQNmXKlHMFQUjZb8o4UcGJYMJowrj5qN6/f3/5nXfeWbl+/fplAKZKZijwiUl6NPh8vj+UlJQ8QUTvAxAlszQZilZUcLyYMI4ZlUqFgwcPam+66aZfO53OqzmOm6RSqUaQThTFxHutVovDhw8fcd6mpqYz8vPzCwoLCzmNRhPKzMwUGWMcYyyDMUaMMXmS6qm6PQXjCBNGEwLA5s2bpy1duvRlAKZjHVNVVYXq6mqsXbsWb731FjZs2CD/WgTQW1FRsXfWrFl7SkpKOs4++2z/3Llz/zVv3rwPAewDQAoJFRwX0p03d6pFFEWIogie5yGKYlZlZeXTAOhYYrFYSA6v10tVVVUEgDiOS3VMFMCuioqKR4PBoJGIWLrvXZGxIePeMSPXRoyx0I9+9KO3R9uX4zhYLBZUV1djw4YNWL9+feK7zMxMBINBaLVaSCltksShAjCvqanpG7W1tZUAzkPMEQRgpNNGelWgABjHccLkB10KTwDolG/X6/W46KKLUFRUhDlz5uC8885DZmYmDAYDKioq4Pf7UVxcjGnTpmHXrl3o6ekBgKM5cAqeeOKJr914442q2bNn/zUvL68VQB9iJqxCQAVHIt2q+FRJ3PxMvIZCIRURXVRdXf1XyMxIg8FAFRUVR5iYWq2WAJBOp6OGhgZyuVzEcRzpdDqqqKig+vp6crvdZDKZRjNRD5tMpi21tbW/DgQCy4goXxRFFc/zyhQpRUZI2htwqiROPhURZRJRIRGVNzU1/R7AIRzHmDBZKisryel0kt/vJyKi7u5u8vv9CbIeRYaKiorec7vdPyWi80VRzOF5XpXu/lHk9JFx4R0lokSCdvyVMcYyAczdvn37uR999NH5b7/99oV1dXVLAEwBjh4TNBgMuOuuu5CXl4eysjLMnTsXHR0dKCkpAVEs5tjW1obu7m489thjI8aOEqTzy64TsNvt7917772vFRQUuAG0AxgEICBuqibfj4KJgXFBQuCI1DR1S0uL9ZZbbrG1tbWZAExDPDtIcqTIA/Tl5eUoKChIjAWnTJkCQRBQUFCAsrIyhMNhLF68GA6HAzfeeCMEQcDQ0BBuuukm3HzzzVixYsVxBfoR86AesNlsbYsWLdphsVg8BoNhG4D/AAgCEOXnkJIAFEKOb4wbEkoPr1qtRjQaLcjIyHgWwBWj7W8wGHDNNdcgNzcXLpcL+/fvR29vLzo6Oo7Y12Kx4NVXX4UgCOjt7cXUqVNx6NAhnHPOOejq6jqCfKWlpViyZAny8/Oh0Wgwffp0zJw5kwoKCqI8z4cABLu6uga2bds2dODAgc4777yzdfHixe8WFxfvANAjxE6YyMbhOE7RjuMZ6baHT5ZIThgiQmNjYxmAAMdxImQOmNLS0sRYzWw2k16v/9RjQ7PZTK2trVRbW0sAyGQyUWVlJTU0NJDb7Sav10tms5mqqqqI53kiIgoEAuR0OikOkYgiRBQKhUI9RqOxD7HJxd7q6mqHy+W6Mx5nzIs7k9Let4qcWkl7A06WyEiocrvd1viDHTUajaLD4SC73U5FRUVHeDKTvZpH+07aVltbm3DSSEQjIuJ5noLBYGLf+vp68vl8ifehUIhEUSSe50kURQqFQqLZbBaTrnHIbDa/5XA4aojoIiLKJSXwP64l7Q34rCJlxMRJqBJFsYSI7quvrx8ymUyCxWJJfshHEEoimvx9sqxcuZKampooEAhQIBAgr9dLHo8n4SkNhULE8zzxPE+hUIjKy8sJANXV1VFDQwMFAgEiogT54sQVnU4nP9ofAIBDOp1ug8fj+Q4RlfI8r1JCG+NT0t6AkyWiKDIimuf3+39SWVnpkYcOjqbtRjM5q6uryel0UjAYJLfbTTabjSoqKqiyspIAUGlpKdXW1pIoikRECRJK74PBYIKU0ncSCYlI7Ovr69NqtQOIldcQk9tmMpl4l8t1sKKi4p9Op/NHRDRXCW2MT0l7A06GxAm4wOl0/lyn03k/7ThPCtg3NjaSz+ejYDBIEpqamqiuro5aW1sTxPL5fAntJjcv5e/l2ySiEhHxPC+63e4BnU43bDKZApWVlW1Wq/Xfer0+ECdkol0Wi4X3+Xx7bTbbOx6P53ZRFLl097UiJ1/GtHc03nbGGJu1cePGVVdeeaUNwFx59TS551IKI5jNZlxxxRVYsmQJZs6cieLiYmi1Wrz55pu48MIL8fjjj0Or1eLmm2/Grl27YDAYEteT0t+kfpM8mNFoFEDMOxuJRKDRaEa0taWlBTt37kRzc7O4du3a4aqqqn89/vjjfwSwFkDWgQMHDFu3br3g+eefNz311FNLABQBUBuNxu7s7GwCMOhyuc5HrES/gvGEdP8LfBaJV9We7PP5bgGwHUcZ+0njNABUXV1N3d3dJIfH40loO7PZTADIbrcTEY0wJeWOGLmGS0YgEBCdTidfX1/Pp8iqCXs8nl8S0XRRFFXx+0hk9wSDwYudTud36+vrn6yoqNhgt9v/5nQ6fySKYla6+1yRky9pb8BnkXha2tkrV678azLxqqurqampKUG2xsbGI8jp8/mIKEYml8uVGA96vV7q6+tLaU7Kx4CSk8btdpPD4aDa2lpx5cqVUZ1OJ3cGiQBC5eXlB+12+8H4mI8XRfE6URQzkxxL8nS7DCLKolhJ/mwimqyMCcenjPVZFOr29vayZ5555kJpQ0VFBR566KHEDocOHUJOTg7y8vJGHFhbW4szzjgDRDET88CBA6isrMRTTz2Fm2++GS+++GIiON7Z2Qm3243nnnsOwWAQHMfh8OHD6OrqokAgwKSZFYgVDSatVjtYUVFxYOrUqf6ioqI9paWlvhtuuCEwMDCQv3jx4mWrVq3KAfARYilrn9xM3KyNRqMiAFGtVvORSISp1eqxO2ZQcGyk+1/gM0q2w+GoQVzr2Gw2IiJqbW1NaLuGhoaEVqupqRmRcF1RUZGI3UlwuVxkMpnI5XKR3+8nu91+TG8qYt7SaHV19S632/0Hn8/3HVEUzUQ0j4gKiCiX5/kpRFTS3d39HQC/5Hl+vnyWB9HIcEuyhpTenwZ9rshJlrQ34DNKdl1d3f9JRPB4PEREZDQaCQA5HA4iohHjuO7ubnK5XNTQ0JDYP3msFwqFErPoJUmOKQKJ6U4RAB16vf4dj8ezhoiu5Hm+QBRFjTTeE0WRxd9zwWDwcpPJVBMIBIzS1CbpfpKJJv+skHD8ypifWT9lypSESVdYWIj29nZs3rwZALBx48aEdzQcjlW7b29vRzgcxqxZs3Dffffh0UcfBWMMarUa27dvx1133YVJkyZhzZo1AEauUyGdSxCEQQCtzz///KNE9H2v11t79913P//ggw/+o6Wl5X21Wt3DGJPif5JZm4GYxzMrKysL+/btO4MxxskrtTHGkisByNdVVHJHxynG+pgwUlJS0obYDITcQCBAw8PDiSf1mWeewcyZM3HPPfcgJycHANDY2JggGAAUFRXhvvvuw1tvvYXm5ubEdq1Wi4GBATnxoNfr+x5++OHN+/bt++esWbPeu+SSS3YSUff8+fPV8+fPV91yyy1RQRCi0WiUAMhLIWZs3rxZv2jRooUZGRkXAJgxMDDQhRgxI0RKcvaERrpV8WeRuDl3vlar3YxYSEHweDwjgvCIezyl2fHSttFEMjWNRqOYNBbsstlsjUT0FYrlc6pGG8PJJb7fOQAedrlcrwYCAbder9/a1NT0IyLKVsxMRca0JoxGoyLHcR+tWbPGtWLFiiWPPfZY5sKFCwkA4zgOVqsVfr8fzc3NI7QcMPqkXmnb5s2bGWLkGwLgra2tdd5+++1/I6JtiE8zkk8xIvrEgSl9luY2/uUvf/kSAEt7e3vxgQMHVIFAoJ/n+Uny/RVMXIxpEgKx8VlFRcVrWq32mp6eHv1tt93GtFotenp6sHr1agAjZ7nLjhv1nI2NjVsWLly4q729fVdeXt5us9m8U6PR7BIEYZAxlph4m0w8CdL2uDma6Xa7zzObzQV79uyZvHTpUurp6ZmOT0rrK5jgGNMkjK+KJALYduedd761evXqswGoZHE7AKMTjuM4fOtb30pM0m1tbaW2tjZcddVVG2fMmPGayWT6GEDPli1bhCVLlkSk1DQJo2kwuWYUBIF9+OGHxTqdTrV79242efJkIBYfnCxvn7LC08TFmPaOyh7a3quvvroZsdKCKZe5lrShJNLnnTt3oqioCPfeey8++OCDSGlpKf7xj3+UAOgTBKFTEIThJUuWRDo6OpCZmckATOI4LpvjuMkUn+eXChJho9EoA3B47dq1bNGiRZSVlQUAfV1dXXnSfsqy3BMbY5qEMohLlixpNZvN/wZSa774kmdwuVxwOByJfRhjWLJkCXp7e7Fp0ybVnj172IMPPmg4dOjQGdKxHMfB5/Nlbt26tYTjuMs3btz4jd/85jf/xRibdMSFEDNHJc9oZmZmxqWXXvofAGGLxSLeeeed0aqqqv729vbpQEybS+NKBRMT44KERASO4zovvfRSNwBxNM3S1dWFHTt2wO12A4iRq6WlBd/97ndx66234rLLLssQBAFtbW3zfv/733+J4zg1ECPwueeem/Gzn/3skgMHDlgWLFgw9+DBg5mIOW6OAGNMSj9TAcj94Q9/2OHxeHrjnlksWLAgsnfv3unJ96BgYmJckDA+BguvXLlyE4BgPKZHWq32iH2/973v4Y033oBOp8OaNWvAcRw+/vhjbN++HVqtFvHka/GVV165DkAmAKZWq9nkyZPPEAThS4WFhfP//ve/F//85z8fICLxiAsgQShVNBrNHRoampGdna0yGAwMsdxSzJgxI+/DDz8sAsAks1XRhBMX44KEcXNOzM3N9RiNxr06nY4++ugjNjAwkLxeBADgjDPOQH5+Pm677bYRpmtPTw91dHT0AGj+n//5nxoAPAAVY6xIo9GYbr/99jkAdNu2bSuORqO9iJUwPAKMMXAcx/bs2aP1+XwzARQRURHiHtHh4eG8jz/+eDrizpnkEIeCiYVxQULGmFQnNHDRRRe1dXR0HDUE8eqrr2L79u0jtlksFo/T6fw/n8+30ufzVV100UUvhMNhDA0NzWtpabn6N7/5jWXevHnFPp8vKysrK3f37t1qxtioHhVBEGju3Llcbm5uPmNsBmKEYwBYVlYWh9gS3NMgWzRGwcTEeHPLhZYuXeoBcD3HcUfYd2VlZbj22mvx2muvYfPmzfKZ9m0vv/zyGsbYHxBLIxMZY2oAi2+99dbrOjo6yq+99toz3W537p///GfN7bff7i8sLNQiptnCo7RF5DiOb2lpyQEwTarezRjLGB4e5gGoBEEoUqvVHwOIKOboxMW40IRAIjAuLFy4cBuAkDwcIWHHjh0AYnMJdTodCYIAnU53cM6cOS8zxl4WBCEsCIIIgK1bt66spaXluvvvv//a5uZmk91un+H3+yetX7+eB6D67W9/my8IQnYq8sQdRSpBEDIuv/zyvGAwOB2fjP/YgQMHNADQ0dExTdKmijacwEh33tzJEHmuZigUmltUVLQLAOn1etFms8nn/JHdbh9RBNjtdr9HRF/jeZ4LhUKMiFTd3d1lbrf7Pq1Wu81ut4ecTqdot9tJq9WSVqslr9e7g4h+SUSLKFaWIlWbsnieX8bz/G99Pl+fGAOFQiGy2WwCAGptbb2N4vmj6e5DRdIn40ITSiEBAMjMzDxotVp3ArEQxB133IHS0lIAwJ49e3DNNdfgxz/+ceLYzZs3DxLRMMdxkzUazdT29vZzgsFgxUsvvfTVDRs2zK2rq9PcfffdbNWqVdi9ezeefPJJeuKJJ+b19fUtAHAOERUDyAOgwSeWhQpAMYBFABZOmzYtKxqNMqko1FVXXSUCwMGDB/MR95gqmLgY09XWJMjvgTGW8fTTT1evWrWqBgAMBgMJgsDa2tqg0+mwePHi5PXn+9xu96bh4eFtWVlZAoC5jz/++DmLFi0665577plkt9uxdOlSlJSUwGQyyS5JAwBeZ4z9E8AeAPuJ6ACAHgB50WjUDOBrAJap1eop0WiUyRZ4CTPGNI2Njb+65ZZbHiCiwfj2U9hLCk5XjAvHTNKshegFF1ywFbHwQsb27dsZENOKXV1dyM/PT55BMXXp0qUWAMsBRKxWa/SrX/0qW7Vq1SQAqKurQyAQgCAI2L59O8rKyhCv+zIFwOUcx80A0AFgbzQa3cNx3N64dlzOcdwyAFOIiEntlMBxHAYGBmZASeSe8BgX5iiAxOx4IhINBsO/AByU4oNFRUUJ0m3fvn3EsmgSqqqqKBQKsezs7MkPPvjgZIfDAQDQ6XTYunUrBgcH8eCDD+LgwYPgeR5qtZpxHDeFiJYCsBLRbRzH3fH000//8ODBg7dzHLfsV7/61ZRdu3axeNwQTz75JDZu3Ihdu3apBEFAe3u7joi0jLFx8zso+PQYF5owBQ6Yzeadzc3NxQCwYsUKHDp0CGvXrh2hBaXXiooKPPzww2qNRqNes2YNKioq0NXVBa/Xi3A4DIPBACLCmjVrkJ2djd///ve46qqrkJWVxaZOnZoRnwWRCSAnKytrvlqthiAI3J/+9Cc2Y8YMzJ8/HwDQ09ODPXv24MMPP+QAYN++fTMjkcj0zMzMfYjVqlEwATFe/4FDNputFbFiT4Pvvfceff/73weAI+YVGo1GrFmzJlEx+5133sG+ffuwZcsWzJ8/H7Nnz0Z/fz/6+/uRk5MDxhj27NkDt9uN5cuXo729HRzHIRqNMiLK+PrXv55RUFCQ0d/fzwDgwQcfxNNPPw0A+Pa3vw2O43Ddddcxh8PB79y5c8bhw4e1Rwv6Kxj/GFcklBVDii5cuLAVQLitrY27/fbbowMDAzCbzQBGErGzsxN///vfE1rxu9/9Ltra2pCZmYn29nZcccUV+Pe//52YIAwAF198Md5++2184QtfwPnnnw9gRD2ZEe1pa2vDW2+9BQAoKCjAl770JcyfPx8lJSXU1taW29fXl4dx9jso+HQYrz++eNZZZ23X6XT+p556KnLFFVdEd+zYge9+97uJHSQidnR04Lbbbkssg/3lL38ZAKDRaNDc3IyWlhYsWLAAK1asAAD86le/wiuvvIJNmzahqKgIPT09uOqqqxCNRkc4XjQaDeITeHHOOeckrvnlL38Z119/PW699dYMAGopkK94RicuxisJUVBQ0GU2m//V0dExZc2aNWqj0YjzzjsPOp0usY9ERIPBgPXr1+Pxxx+HZLbOnj0bWVlZMBgMmDRpEkwmE3bt2oVgMIilS5fi7LPPxrPPPovS0lJs2LABDzzwAIgokceak5ODCy64AADwu9/9DoODg+A4Dnv27EFTUxOefPJJHoC4c+fOEgAZ4yFUpOAEke5sgVMoGU1NTdWIOTzI6/WKbrebKioqjqiuptPpCEBiSWun00lOp5PcbjeZTCYiIvL5fImiwi6Xa0SVb0l8Pt+I9St8Pl9idWBpQVG3203V1dVERGGTyXS4qqrqJSIqpVEybxQZ/zJuNSERRc8777wWrVbbCQDvvvtudHh4GC0tLSP2EwQBHR0dAAC3243Ozk5ceOGFeOWVV+BwODAwMID169fDYrEkigrfcccdyM3Nhc1mS5ynuro6oWXjE3pRUlKC//3f/wUAFBcXAwDy8/ORm5uLeF4purq65gKYCeDIQaWCiYF0/wucKonngRbbbLYXENdUoiiSyWQ6QoOZTCZyu91kNptJq9WS3+8ni8Uyog5pslRWVpLP5yODwUB+v5/q6+tTLhYaCoUoEAiMKLUvrX3R1NQUAdDj8/lsFFuBKe39psjnL2lvwKmS+BoPGpfLdTeAQQDU1NQker3eYy7uUlVVRUREdrudysrKEoSUCgdL61JIJqYEOQmTISel2+0mn89Hra2tYQBhl8t1PxHlK2vST0wZt+YoABARv3jx4vf0ev1/AOCFF16gqVOnwmg0AkhdlQ0AXnzxRXR2duKRRx7Btddem8g1XbZsGdxuNx544AGsW7cOxcXFIEqUNhwRppC2S6/AJ6v6Go1GtLS0YNasWay0tJS98cYbiwBo1Wp1YlyoYAIh3f8Cp0pkS45pa2pqHkOs1ie1traKtbW1x9SGTU1NRBTTYPIVmmpqahJmpaTdUiF5u2SOShIKhYiIxIqKiojRaNzJ8/wyadHQdPedIp+vjGtNCABE1FdRUdEMIAAATzzxBEmxQGB0bfjCCy8AAB544AG8+OKLAACTyYQ5c+bg4osvRn9/v5QpM6JDk649YrukKTmOk96zu+++mzZv3jxz9+7dCxljIxe6VzAhMG5JKJGLMSYaDIZWq9W6TafTiZFIhHbu3Amr1QrgyBql0nGvvfYazjjjDKxevTrhPW1pacEFF1yAjz76CJWVlYlj5JW55USMRCIJT6mUzSMnPRFh1qxZDMDkDz744DwA+Yj/JsmEVjB+MW5JKD3E8deuW2+99e2Ojo7Br33ta4cdDgfNnj37qMevWLEC+/fvh9frRU1NDaTyiTt37sRVV12FpqYmbN++HRzHob+/H0NDQyMyZqTx32iQvpsxYwZns9moqqrqHAAlANRERy4yo2AcI9328KmSpCXKVDzPf1Gn022urKwccLlcPI6xNJpOpyOfz0dEsfGc3++n1tZW6uvro5qamhErA7vd7sQYUhoLut1u6u7uTowB5Uj2oDY0NEQADAQCgTuIaIqyXNrEkrQ34FRJinUCpzY2Nv4awMHW1tZ+s9ksykknJ6G0zWazUSo4nc5E5gwRjciSkT77/X4KBoNHkFAeR+zr6yOPx0MejycCQKyvr3+GiObKltlOez8qcuol7Q04lZKsDbu7u7+i1Wrfr66u7nc6nUdoQ4mAciJardaEliOiRKzPZrOR2WwmOZxOJ1VXV1N3dzf5/f6EJo17Qkecg+d58vl8pNfryev1ioglDXzI8/xyIspQCDhxJO0NOFUif4jjVdhARAUNDQ0PATjg9/t7k01QudhstkTepyR1dXXU19dHEiSzFAA1NDSQPPThcrnIYrGMMGnlImlHs9lMra2tVFNTwwMYcLvd1USUr2jCiSNpb8DnIaIoShk0qkAgcIVWq32/qqqqr76+XhhNG45GUL1eT42NjRQMBikUCpFer09sl5dStNls5HA4SKfTJTJr5ASUSOjxeMjn85HL5YoAEO12+8tEdB7Fl+OW2p/uPlTk1EnaG3CqJFmTyN5Pi2vDbqfTOaDX68Vkwo2WLyoXo9FIjY2NZLfbUzp2JMeNyWQinU6XCOzLA/yyHFL5Ofxer/f7RDRFlnCgyDiWtDfg8xIZKVW9vb3lAN632WyDDoeDT6UFy8vLEzmjo5FstO+qq6vJYrFQbW1twmSNT19KSUR5gWIAUZvN5iSii0OhkKINJ4CkvQGfp8iIWBD3lB5yOp0DNTU1R2hDrVabTI4RYrVaye12k8PhGGGGIp7onSo1rq+vL6Um5HmegsEgybRyj9Pp/BURzRZFkcnbn+4+VOTkS9ob8HmKREKe51VEdBkAt1arHfb5fBH5ZN9kbWc2mxNjv7KyMrLZbOR2uxNxQiKiQCBwhGmaTMxQKHSEg4YoRkLJqxpfH5G0Wq0nGAzaRFHM5nkekqS7DxU5+TJuM2aSQUSJ1DG1Wi0C2NLU1OTs6ekJPvjgg+Kzzz5Ler0+5bFdXV2wWq0oLS3F7Nmzcf/998NkMmH+/PkQBAGdnZ2oqqrCSy+9BOCT1DedTofKykrY7Xa8/vrriSyZVAuDTp8+HQUFBaisrGQOh0Po6ek586GHHrqaMWbAOM5sUoAJqwkhiiITRfE8q9XaBOCww+EY9Pl8CbO0tLT0iBAFZKao3LTs7u5OlM2QjyuLiorI4XAQEY1wzMjnHSYH+b1eL/n9ftHhcAwC2Od2u3/F8/w8nudViiYcn5L2BnxeIveWSqadKIqq1tbWmwC0ARgKBoNhyaTUarWJmjJIMlFNJhMFg8EEeRoaGo4a5jiaUyY5bCGFPohIbGpqGgSwo7e39/+JoniGfHyoyPiRtDfgNJDi2traegBBm80W9vv9Yirtl0xGi8VC3d3dJMHtdo+YeZ9Ke3o8nkSwX5pTmMpREwqFKBgMEhGJNTU1wyaT6R2e51eIopgtaXIlfDF+JO0NSKfIQhZfKSsr2wQg7HA4eI/Hk3DEpBKdTke1tbVUWVlJXq83EXhvbGw8ZhhDr9fTypUrE5pUctYQfaIZA4FAQtsGAoEIx3F91dXVfyGiL8rzShUSjg9JewPSKbIxYr7T6fwpAD8A8vl8ot/vP6omNBqN1NDQkEhLIyLq6+ujysrKlERM/ix5S5Pr0kjvm5qayO12ExGJLpcrCGB/Y2NjPREtksaHCgnHh6S9AemWOBEZES2uqqr6E2LLo0VEURSTx3qpxnulpaXU0NAgmY8kimLCSaPVahMmqvRZTsiamprEMdJr8jSnOFHFioqKCIB2r9d7PxGdpThqxo+kvQHpFLmjhmLLZF+r1Wq3xMd8USIa1axMZWZKU5skbQiA6uvryefzUV1dXUqtmFyxjegTT2owGEwUJJZ5br1er/fHRKSLe3hT3pMiY0fS3oDTQeSZNE6nsxpAh16vj8Y1UEoNOJqZabPZyOl0Unl5+QiCOp1O8vl8ZLfbExoRiOWXpgreS5+DwWCC3E6nU4ybsq2BQOAWIspNnjepkHDsSdobcDqI5HEMhUIqIiqrrq5uANBbX18/7HK5RvWWymfhW63WEd5R6b282LDRaKT6+npyuVzU0NBAjY2NibmGcpM0eZxos9mooaGBiIjsdrsA4PDKlSs3iKL4FYrPtlByTMeupL0Bp4MkaREWDAYvNZvN6wH0eb3e/rKyMjFZG8o1oBRTLCsrI47jyGKxJLRdVVUVORyOEcngWq2W6urqElqQ6MhgfvJ0JwDU2tpKRCSuXLkyDKDPbrf/kYiWSmapQsCxKWlvwOkm8fEh83g81wJwVVVVBVtbWwdSOWeSA/h2u33U0IbcPJWLxWKRvKBENNIUldUnJbvdnlicRuaoOVBXV/c7IrqQ53mlJMYYlbQ34HQTWaI0c7vdtwLY4XA4+ogo7PV6j1ijQnqVE4koFryXJ3RzHEcNDQ2J4yUNKZ+d73K5EqRLTm0jijl8JPA8L1qt1giAQG1t7RNEdCERsWTTVCHl6S9pb8DpJkmm6azq6uqHAOz2er19RCS63e6U40KO48jlco0of0FE5Pf7yeVykdVqpfLycnK73eRyuchgMJDRaKSmpiZyOp2J4L/JZBpRQIqIEgF9efXuUChEVqtVGq8eqK2tbSCipSQjouKsGRuS9gacjiIfH4qieJHVav2zyWQ6GAgE+olIlIcgUpml9fX1UiJ2QqRjdDodNTY2ktfrJbfbTVarlbRaLVkslhHzFysqKhLrHcrJJ3fcSBk6BoMhqtPpDtrt9j/yPP9lMVbiMZHapgT2T29JewNON0k25XieV/l8vuu1Wu0mi8UyTEThQCAwYuw3WvjiWGK1WlMu1SYX+ZoYycneoijSypUrRbPZHDWbzWEA/eXl5X8PhULXE5FWnlmjkPD0lbQ34HSSVG5+qUqb2+3+IYB/V1ZWholIDAaD1NjYSGVlZUeYpqWlpWQwGI4gZllZWcJrqtVqqampKVEMKtnhIz+2vr6eiD4ptygRMd6OPrPZPAwgGj8mrNVqW91u90+JaKGkFRUinr6S9gac7iJLazvL6XT+LwCfzWYLd3d3i0SUWLFpNE2YXLkt1ax9q9V6TI0qpbjJZl+Ioij2iaL4576+vmdXrlz5BgBfZWVlL4BDAHy1tbUNoVDoK6Io5hERU2ZfnJ6S9gac7iJ7YBkRlTkcjocB7CsvL+e9Xq9IRAkSpfKaHm3sKP8sn0DsdDrJ4/FQXV3diNxTKWAf14Zhnuff5nn+DiJaGAqFLPX19b/mOO4DACGtVssDGDKbzc0ej8cuiuICURRVoVBIKZNxmknaG3C6S5KXkRHROfX19XUA9sXHbDzF1hk8qsaTPpvNZiotLaXy8nLyeDxUW1tLpaWltHLlyoSparfbiSjmWZWKSEnHS7mkoiiGRFH8K8/z1/A8r+N5niOiIr/fb7VYLM8A2CO7/t7a2tqnuru7ryKigniNnbT3rSIxSXsDTneRj6Xi5pyKiBY3NTXVAvgIwGGv19vP87zodDpHrdAmJ6E0Y1+r1VJtbS3V19cfEeSvqakhURTJ4XAcUWYjXjIjxPP8UzzPLwuFQlN4nmdSIjrP87rW1tav22y2RgAfA4gCOKzT6TxNTU2/JKJLiSiXYtr9VPUdIyKOiLLjMvkUX2/MCiMiKDh+xPuLMcZKt2/fft3ixYtXAFjodrsFk8mUDYC1tLRg6dKlAGJFn5LXQBwNUoEo+f41NTX40pe+hKysLOTn5yMnJwdZWVkUjUb7tVrtbxljfwXwLwDhpNOpAGjD4fCS55577tLnn3/+0g0bNpQBGOA4rvedd975u8lk+juAHUQkSsWnkpdzk4pREdGo76X9iEhaEo4xxs5qaWn54ksvvfQlv9+fe9FFF7339a9//cm8vLyBcDiMzMzMEYWujtLXR7Rl3CHd/wJjUaRCUURU0N3dvaK0tHQjgD6HwzEoxiPsbrc7ocEk81Sn06VMXzMajUdowlQmrVarTYjNZttNRHcQ0WwiOsK8lJnQKiLSiKI42+v13lBfX/80x3GdAPqsVusLbrd7Fc/z84hosjz17WiBfvk2+X5SplEwGLzYbrevAbALwJDJZDoAoNHr9U47mpf2eK43HiXtDRiLkvSAqoLB4FcqKyufA3DAarVGGhoahEAgMGIaFOIBeLkTRxKTyZTYLveWHk3cbvcWIrISUc7R2ig5YuLvVaFQ6CyXy/UTAP8BsBdAl9VqfdXhcPysu7vbLIriNIqT+nge/uTk90AgcFl5ebkDQJ/s3rsNBsNvu7u7c443eSCZ6On+zU+lpL0BY02StYT07y+K4tLa2trHMNIhMmr4QqvVjroaVHL1bnlp/sbGRjIajaLD4Wjlef4GIppKsulM8odc/ioLTzAi0jU2Nv4QwAcApNS3wzqd7l/V1dUNbrf7G0R0FsXGcSMImawh5bm2wWDwcovF4gAwkHRfO5xO502UlNt6tH5Nvs54JmLaGzAWJdWDEX+4F7jd7nsAbAHAy01KrVY7olz+aIH5VASWfy8lBzQ1NQ0S0YtEdCcRnU9EOVKGTLKmCQaDTGpvvJ1qIpru8Xi+UVZW9nfE4ory6wYBbG5oaKhzu91fD4VC84loChFlkIyUSQRcZjKZ1tXX1/ck3U9PbW3tQxSrBJBoWzIZ5dsk7Z18L6n2T/ezcDIk7Q0YDyI9DPFJwQV+v//6+HzEnlRjOp1O96lT3aSl1+THmM1mobq6en9paenrjY2NdxHRfDFWjU1FRJO9Xm++z+ebRkQFoVBoand399RgMDiVYt7KTCLKCIVC5zU0NNxjtVqdADoBCFJb49cJcxy3t6KiYmNDQ8P/ut1uayAQOJtiGlhDROpQKHSV1Wp9Xq4BZasdv0VEl4miqBaT5j0ma9Tk70KhEDtWts94IGPaGzAeRG4GSmGCUCh0YUNDwy+1Wu0OSSvqdDqxtrZWbGpqIrPZnCBmXV3dqNW+k7XpKOQVAfy7tbX1F0R0LhF90e1231RdXX2Pz+d7yG63/8loNL5jMBi8RqPxw/Ly8r85HI6f+Xy+ZaIoziCiKcFgcKrf7y/2er0X+v3+71kslo0AelNcZ1iv17dbrVZXdXX1M62trQ/bbLZNAIaTTW+tViv6/f6XiaiQYgufTgkGg7miKOYSURbJNGtcVMFgcLLH48kXRXEKxca7o4mGkqoKjFVRQhQnAfI+jLvogVgYY/quXbu+/JOf/OT69evXX2y1WgsYY6ywsFB98803M4/Hw371q1+hoKAAW7duhSAIKUMa0rZUIQw5DAbD3tdff/2drVu3Zv3oRz/SffOb35xxzz335AHIBqBGLF4Ytdlswtq1ayMAApWVlZuvv/76N81mc4tGo9kDIAQAnZ2dF1dXV1taWlrMbW1tZwPIwadbE0MEEKyoqBhcsGDBdgADXV1dk/fv3z+poKAAixYt+thoNO4899xzd+Tk5OwBMKmnp2fJT3/606VPPfXUkurq6r3Lli3zzZw5c39mZuZwMBhUDQ8Pa4aHhzXhcFiTn5/fcdZZZ32g1Wo/jkajUY7jxE/RttMKCglPApL7kDEGQRAkMqoYY+esX7/+qxUVFVeUlpbOu/rqq7MQI0XGihUrVDt37mSrVq066jXk5Ewm6tFikTqdjrq6utgll1wi7t27l61bt44///zz6dFHH41+73vfUwNQ63S64NSpU3f+4Ac/2HTLLbe8BeBDxLyb4uDgYJ7X6y31eDymd9999/KnnnrqfADTkq7bW1lZ+YHJZNo4PDzcs3379rM3b968ePv27WUACgFwo9xWlOO4w5dccslwRkYGXn311RwAk3B8ZB/UarUvtrW1NUyfPv1dxtjxBWNPR6RbFY9XSXI0qIgon4gur6+vfxDAeyaTaV9DQ0O/zWYL2+12wePxiA0NDSOyaeRrYRxLjpWrKhUbDgQCRERUX18vVldXC8FgsKe6uroHsfHrIIA+g8HQarfbf+t0Olf5/f5ziWgGxcaAjxDRB5WVlSHpvEVFRRQIBLyiKD7d29tb3tfXV8Dz/BSKOXLyiKiwu7vb4Ha7f9rQ0LBLr9dHAZDFYuENBkMUMe0smbqCyWQSLBZLFLHQTbS2tpZ3OByRxsbGSGNjY6SmpoY3GAyJ4lt1dXWPUWyMm/bf/ERF0YSnCPJ+lZmoKsbYtAMHDhjXrFlz+erVq79YVlY26/LLL8/Ozs7mcnNzMywWi6q7u5u9+OKLCAaDeOqpp477mhzH4ZprrsH69euh1WrR09OT0FZWqxVTpkxBZ2cn7r//fixduhS1tbXo6uqi9957Dy0tLczhcAyuXr1a09bWBgAMgMhxXM8111yzX6/XB4eGhnLfeOMNnd/vn9bT08MAQKvVIj8/f3Dy5Mno7u4mjuMGcnNzPy4qKvpXfn7+7uzs7P7MzMyoRqMp/c9//vNfLperWBAEVlRURJFIhMnbmAytVoslS5Zg8uTJdOjQIQwNDeHw4cPo7e1lPT09AICGhoaHb7311p8BGDrxXyvNSPe/wEQSeYCfiAr9fv9Xa2tr6wBsic+MH3C73f2iKIaIKOL3+8Xa2tpEJTepBIa8mhuStJ/c4ZP8fbIYjUZyu91kNBqpqKiIKioqxKqqqqherxdXrlwZ1ul0kcrKyrBWqx1EbKx41MVyTpZ8Cs9xq9vtvoFiDp60/74nKoom/JwwSj+rGGPT2tvbL3jppZeW/eAHP7hYEIRii8XCrr/++swbbrghIycnZ3I4HMamTZvUTz/9tHr27NnMYDBg4cKF6O7uhsfjwbZt29Da2oodO3YASD1GPJq2kbSKTqfD9ddfj7q6OnAch1dffVV4/vnn2Zo1a9SSUwjAqA6k0XAi+45yjAhgSKfT7bnmmmtar7/++rfMZvMGIjrAGBuzD7JCws8RRJRIdE6CijGWS0Rnb9261fj666+ff88995QBmGq32yNXXHGF5uKLL87LyclRd3Z2Zr3yyivcqlWr1GazGbfffjvy8vKQn58Pp9OJ1atXA0jtyEneJiHVd8dLmlOB+PUJQJ/RaNz57W9/u3XKlClbSkpK2s4+++zOqVOnDgGIxJoujGnPKKCQMO2Q9380GlVxMXbkAZjX0tJywUsvvbTktddeO3vz5s3FRqMxetNNN9HixYtzpk2blr1z587JBw4cYIcOHUJHRwfbsWMH27Jli+pECXS85EsmcKpzJIdTUpw7CqDfbDbv1+v1Xfn5+QeHhoYKPvzww+nNzc1ks9m23Hvvva65c+e+z3GcH7FZIiIQ6zNpnD0eZlYoJDyNIAtrADHtqAYwaXBwcFp3d/eirVu3nvvCCy+UHTp0aJ7b7S4qLCzMmDVr1nBxcXFkwYIFqiVLluTl5+drhoeH+d7e3gy/3z8pEAhgaGiIRSKRxHUyMzOxdOlS8cCBA+yf//ynatu2bezjjz9OPM1arRYzZ85EVlYWiAjBYBBxZ80IpIpbHoPIEQAdVqv1/UsvvfTdK6+8srW4uHjPpEmThtRqdTQajaqHhobUe/fu5fR6fZDjuLAgCKLUJ+OBcKmgkPA0QvJvIZ/jxxhTIRZvmyIIwszdu3ef1dvbe9abb7459/333y/p6OiY1dLSUgggC0DIbDYPLlmyZCgvL2945syZwqxZs/KmT58+vaCggMvPzx+aNGmSWqPRqIlI+OijjzThcHiydF2NRoOcnBwCgEgkwoLBIHbu3Bmprq7O/PjjjzOrqqoOtbW1TWlubs4Y7Va0Wq2YlZUVFQQhkp+f33XmmWe2Xnrppe9aLJYWvV7/Ecdx/bFbpsR9chw3og8ikQjUajVGI6Fk3o91KCQ8jSD9FskTbKXPEtRqtaQlOcQC20wQBHV/f78mHA5P27dv35m9vb1n7t+/v1gQhBmbNm2a0dbWVtzS0qIDoI0fJwLgDQZDZPLkyZFp06bxZ5xxhhiJRNDR0ZEBIHPv3r2ajz/+WIPRg+cEIKTT6bqvuOKKfy5ZsuT9GTNm/KukpMRfWFg4mJubG4lGo1GNRiPk5eWFENOEJNeU8ntMvl+1Wj1iu5xw44WAgELC8QpJa6qRmkAMQMbg4KC2s7Nzdm9vb4nf7y86dOhQLoBM2TFSyEA844wz9gHYPXPmzLbc3NzDOp0uxHGcgE/CFjziyd+n+N7GHRQSTlDINIlE2NFMSwkSyUY4R+ROGgUnBqUHJygkMy8ajYpqtTqCmKk4wvxLtb+Ckw9FE05QHO13Ty7iJCGZiIomPDlQSHgScCwnwenoRJAnDozWNunZOFkOkdOxH04HKCQ8yUh+uFM9yBMNyc/YRO6LVPg0kzQVHAfGqxv9eCAlJCdvA1ITT/puoisChYQnEbLMeMYY46LRaC4RZUWj0QnTz9FoFIIgQBAEyYOqYoxlCIKQi1giAZO+k4g5kf6oUmHCPBynEtI/eSQSYfGHzrBx48bv33jjja8/9thjD3Icp0lzE08ZUmkxWXBdxXHcuevWrftxeXn5+5s3b76ZMTZJ8bImId1zqT6LpKpNeSKFf0YrpZfqvKNsU1Gs8NCZXq/XZrFYngewH0CktLR0RzAYnJLuvjrVvwERyVd7UhHR7NbW1pVGo/FFAAcABC0Wy4sUK/A05osznUwZ6/5lxhibhFgGCIubNXLbRkQswJwIMqeAijGWCFbLTaMkc0kEECIikn3PAGgAzN+yZcvFf/rTn8x1dXVGADqO41SCIIhZWVm5SW0alyAixnEcR0Qzt27detFjjz22/JlnnvkSgFkcxzFBEKKTJk3SQnEGHoExTULG2KRdu3Zd98ADD3y5oKAgc+HChQMFBQUH58yZ05eZmXkYsekvgwAOIlbyPRXmACiORCLT9+zZkwVgEs/zk7q6unJCoVBuV1fXlGAwmJubm3v47rvvvqW4uLhHmu1AROo333zzsoceemjlhg0bLkWsqBGAxMwCVVZWVjQjI2PcPnWy2GHGunXrrvjjH//4rXhfzACgks2qUDPGMtPZ1tMVY5qEAKKvvPJKeO3atYsB5AKYi1i1rlMBz3e+8x0V8MkUnnA4zF122WU2ADeMdlBBQUFIo9GM6Umnx4P9+/dnrlixYhWAr8m3y5O1SVGBKTGmHTOCIAi33XZba319fRNiNVAyUmVwnGhWB8dxiWNNJtPk4uLiEdMZMjMzw263u95qtT4FIDDKaSIYx0nNkpNlxowZw06ns06v1/8JQPcou/PAkbNCJjrGtCZUq9Uix3F777zzzqdvuummfXfdddd/rV279jLEZgIkIAgCampqvrV06dLdAPo1Gg2Fw2FoNBqEw2FVf38/ByBjYGBgyZ49ey7atGmTqbm5eZ4gCInzzJw5czgnJydKNMK1TiaTyd3U1NSzceNG/ze/+c1VPT09us+zD9INWY1Vcfny5W8tX768c926df9asWLFSgBny/fNz88PpaeVpznS7Rk6iaIKBALXmkymTUhRmUsUxbPo2CvFMlEUC4PB4DWNjY1/gqwMfEVFxTuUtAyZzFPKiGhBXV1dY/J1LRbLNhrjdTGPJnJvsXwZgLq6up8k94Xdbn+JiLLHQ+n6kylj2hyVg4jEGTNmvHjdddf9Lfm7uEnZQ0QkBYrjxyQLRSKRQHZ29su33HLLb+12+2uImVDhwsLCQYxiVsYrfe269tprpf0nFKT+lCbhAhCvvfbap1PsqtihKTBuSBj/8WnJkiX/GGWXiPwDUeqUsszMTEQiEZGINv385z//M4CtAPrj3taUJIwTWJw6deo2vV6fvGz1hAMRITMzc9w7o04Wxg0Jj5WFEY1GGWMsUaFLHgNMFo1GA8aYmJOT01xdXf0MgK3Z2dnvIxZvTCDFObpw5Nrx4xrJqWfxvgMQKxil4NgY046ZTwvJbDrWPjIN2X/XXXetnTNnzutf+cpX+gDwo2lQBQpOFBOKhMeDJIJRXl7e0K233vofIoLkUVVwwlCSRlNg3JijnwXJDhr5NrVajXA4ZmFmZmYelzZVkBrBYHDysfeaeJjwJExFKkEQEI1GEY1GE2NECekwReVtlP9JJO9zon8Qqc51KtDb25vIZjpWP36W+xlrmPAkTAZjjHEcxyXPAZQ7c04lUpEsOak8VYjlZF4/1TVOBuKJ8se774QZeysklIExxtrb22du3779izzPZ6czvSpVtWlJkr27yfudyLXk505+TV7E5jOQMtHYz0v7jgUoJAQSpicAzRe+8IWbFy9e/Ot//OMfM9LlhJHPTJdrolSEkBKkpT+M49Ue0jWSZ7kna+DkcbJ0vc9Kmmg0OuL+pBn5o2WVSDjad2MVE8o7OsqyZIhGo8jMzEQ4HJ7X1dV1E4CikpKStP66KRaG4QCoBwcHVYj9eVJOTk6U47gIACFeP/S4zy/dMwBpnQs1YyxTEARVKBRSxadfkUajkdLORAC8Wq2OAqATWRWJiFj8eok2cBzHAGRyHKdG6nmXI7bFs5MEIopEo1EaD7P0JxQJiUiFFJN7MzMzwRhTbdq0aTmABQAO5+fnR444walrV6qHWcUYK2hvb1/S0tLyxcbGRuOrr766CIAOn7j6u0tLS99+7LHH/rJ8+XIXgINEREcrqiR9x/M8MjMz2dDQ0Kx33nnn4ieffHLZ+vXrlyE2v1KOKIB+g8Gwr7Ky8u833HCDo7i4+N9qtfqE/6TkaW67du2a/sADD3x39uzZ00tLS4WsrKxBAMLw8DDl5eUJWVlZPD5Z154ACBqNpvfCCy98fdKkSfsx+mTtsYN0J6+eLJESgp1O50KkWH6ZiKYSUS7P87k8z0/p6+vLDwQC03w+n87r9S71eDw/tlgsWwBQaWlpt9/vL/y0bejr68vX6/Xd8msfTwJ3UukMRkQzfD7f1yorKxs4jtuFWD7q0ZaN9tTU1Pw/ItImn1PeN0mvzOPxXG42mxsB7MNRlsKOL10tAui02+33iaKYKSVspzo/EcHv989IXrLbarVupqQEbqfTmQvgfgCvA+g6xn1GAPQA2N7U1FRBRBnjIRF8QmhCQRBw/fXXv5GVlRUaHh5WEVFmb29v1tDQUE5nZ2duV1dXliAIHOKmz7Rp0/rj/8CnDESfOD+kMWlmZibr7++/8JFHHrlh9erVVwGYF2+TaLPZtp1//vmbtm3btuj111/Xd3R0zJCtD2hYvXr1TVdfffXO888//xVpTT+584aI5Ndlu3btMlsslu93dHQsAzAMYLiiouLfCxYs2FFYWNi+e/fuBe+9997ClpaWuYIgZMdLVEzfu3evMRKJaOKl808Y0rJnF1988ZDL5Xr9+eefn9Ha2qrfvHlzynUPAYharfZwYWFh+5lnnvlKWVlZmyAI0fFgjqb9X+BkydE04acVq9X6Ic/zeZ/2X/azaEKe51Xd3d0Xmc3mZxH7t5fOMWy325uI6Gvx85zt8/m+Yzab35P2iWsqwW63P0JEmbKCS8nXkLTXZKPR+ARipT94AINOp/M3RPQFIppMRGoiyg2FQkucTuf/0+l07yG+4lJpaenu7u7uGaIoIhQKjej7T6sJZe1hRHSdx+NxJd0Tz3HcR3a7/RmXy1Xp9XrPCwQC00OhkIaIGM/z42JKVNobcLLkWCTkOE7Q6/X9er2+u6ysbACxmfjRVPtardb3RVHM/TxJSEQZJpPpcQDDHMdJD2FEr9dvCAaD5TzPq0KhEAuFQoyIVB6P5/sAgkd7yOXXkD3w8Pl8MwF449eglStX/oeIFsWvgVAoBJm5yXw+X4Ver38NwGEAB71eb4l0Tnnff1oSStcQRVEVCoVutNvtLfjECfRRbW3tmt7e3q8SUSHFKrgl7kOS8UDCCWGOchyHSCRiY4y9jJED+QwiKtm6deuyu++++4bm5mZTfDt9XqsQESWWGGMtLS3nAJgcN8MIwNsPP/zwkzk5Oa8REcnm69H8+fObLRZL14YNG86SzhUKhUYtpCQ7Fs3NzdMAlEjmXlZW1jBihBallXGlfYmISkpK1r/wwgv82WefHQRg+uc//zlp/vz5n6l/pP7lOI6Fw+FlV1555Team5svABA1GAzNzz777HMGg+E1QRA6AYhEMXNaMlWlz+MB4zZOmKKuzMsAhohoSPbaxxjbdv755z/icDieBLA7vm86fmG+rq7u1wC2AIBer1/vcDgeXr58+Qvy9qjVamms1F5QUDBaXZsEUj2sgiBMgqwESENDg66vr+9LHMepgJE1YOLxO5o/f/5LDoejtrKy8qGlS5f2S6l9JwAmi2myzs5Oy5VXXvm95ubmqwFEKysr1zc3Nz9oMBj+IAhCB2QElMcy5VPPxjrGrSZMGtRL/7yJBS6TgtPijBkzNtbW1hrvueeeryOuLT+PH1i6hiAI9P3vf//Fyy677G0AOYWFhT0zZswYEgSBkpcjk2mqlM6jY2W4cBwXQmzeoyZ+7fzly5ff8fjjj+csWbLEyXHcXiIS5dcTBIFuvPHG92+88catAKKSBj8B5CBucm/ZsuWGr371q7d1dXV9GYDKbrc3PfLII48R0dtyzZ+8BNt4IJ4c45aEyZC8hRIB5USM/8j747Py54dCIYaYJfa5/eBqtRqDg4Ok1+t71Gp1D3AkeaRJyfH9mVqtPmZ5RxnJE8eazeZuAB8DWCjt19LSYrrgggt0FRUVl9TU1GwwGAxvA9inVqtFiWyCIBBiiQGJQP+nQTzpoJjjuJnr1q374ooVK24CcAEAtc1mO/jwww8/TESbo9HoEer78/wtPm+MW3M0GVKalIRkIhKRePnll79rsVieO/fcczs5jjtZiaMqHKMCN8dxYIwhJycnQRRZKl3is9RuxphqaGjo6ra2tpJU55PuU36/0jUAoKSkpKe8vPx1AAPyso4AZjY1Na1YvHjxIxkZGfXNzc3fHhoaKuU4jkljRY7jEgT8tGPCrKysLAD33nXXXT9bsWLFDwGY4pky2LZtGyKRSA5jTJTaJJfxSkAAE8M7ynEc8Tyfm8prKPPQgYhYKBTK4Hk+m+d5VSpX/9EklXfUbDbv4nk+93jvQe75k33HiGhSIBAoam1tvbixsbHabDa/n3yf5eXlHxBR9nF4DZnf77/EYDD8BUB/cl9JXlMAB/V6/d8dDse3Q6HQmVKfpFqXQ/5KNNI7Kp1Pp9PxJpMpjCSvdPz7cENDQzXFQw/yPhkPHtCjSdobcLLkREiYHK9Kdp2fDBIaDIb2410QRnZ9RkQZoVBomtfrNdbV1f23zWZ72mAwbAMwgFGyW6QQwPFcKx6XvLiqquoxxEzT6ChEFAH4zWbzH9xu93KKl438NCRMcc7RpMXr9V5LKUpTjmcipr0BJ0tOBgklIsoJ+WnakIqERqNxbygUOioJk66lCoVCxri2exWxyt7S+UJFRUUdK1eu3Gm32/dptdoRGsVms71DSXHC0e5BFiSf1dTUdLPJZPorYitJicl9F39/GMBrTqfTSjIipnolSh0njEtvRUXFGy6X6wGz2bxVIr8UFy0vL28KhUJLKa4RP+0f4ViUtDfgZMnxkPBoD+XRznm8cqIkjJNeIsTtHMe9hljcjgcQLCoqer2hoeHHXq/3YiKaRUTziegym832ryQS/pNGCdaPdi/x7SoiOtPpdK40m83rAHQAiMq1l0QSABu8Xu8llGQ2Jl9jFBKG6urq1hCRiYjUPp/vWwA2JxG+r6am5hEimnU0Eo4nzZj2BpwsORYJRVHMke93Mn9E6VyjkHDP0UgoMz8XVVRU/B+A9vixEQD/bmhoqOZ5fhHFqoMn1kMMhUJ5Npvtn0kkfJOSMlJSSdK1IUtBUxHRLLfb/Y3Kysq1iK1klUykgaqqqlpKkR53rDGhxWLxEdF5svE2a2hosAPYn2Sqfux0Ov+bZKlpx/unMhZlwnhHgZHewpPpbUuu0JZql6O1hzGW8eijj36tqalpBcdxc+LeygyHw/Hsrbfe+ku1Wv2vcDhMMm+pGJ9KlDKpIHnWfVJ5DIZYaGpEmzIzMyEIgigIwj6TybTuySef/JnT6fyF0Wh8GyPrreb+5z//+erg4GBW8n2MBilmO3ny5G4AXsTjsIIg0M033/xyeXn5q4IghGWe2rlXXnmlrb29/br4fMPEdWR9dtRrjiVMGBJGo9HP5VdL4bZnPD/6hAzGGDo7O6d873vfWw6gGPjkoa2oqHgE8QdWo9EgOWif6nSIrwkvhWSkGevStQ4dOpR37733fquzs3OBVEdHKmglhSCISGSM+ZYvX97wt7/97TGj0fgB8EkW0v79+6cODw+njDEfjZAU/1IW60RmZubHv/vd7xwAtiQlWBgtFsttBw4cuJIxxk4wMWBMYFyQUHrYAGC0hwPxibCynMhT0Y5UDwuXkZFxRD/Lr+/1evMQC1onCBOvXp08qzzxXlqYU/59ZmZmBmK/qQoAhoaGRsQdAeD9998v/sUvfvHjO++8s4rjOGM0GlXFiXdEu4iIiouL//qtb33rpaS2B2VtOG4w2Q3IsmGopKRkY319vQOxeY1SbJBra2v78ooVK74TDoevTJVSN14wpkkomSeyTBLV1q1br0reL54tMkn650960EaYOZ/m2vLjEXvGChBPBZPQ2dk5tb+//yoAKvm1kswpDvHFTSVt09PTg46OjosRm2GfuF78IVQBuPbQoUMl8pPs2LFj1uDg4DKO4/IA5AqCkLjnJMIUrF+//uv33nvvbRzHLUWK50DWH8xoNHqBxB+EOH/+/Nbp06cPygmR1D5EIhFVT0/PiHMePnw4GymytARBoDvvvPPlysrKfwiCMCC7lqa5ufkrF1544fcPHDjwdcbYdHk/JrVz7CLdg9LPInJHBRFpgsHgDQaDQZoOM0JcLtdviOh8ItJQfFrMaA6L47kuEclDGioimuzz+W5HilnwdXV164lomXRd+bFEBK/XO1PaV+6RtNlszb29vf9FRLkUi/9li6K4wOPx3FpVVfU6UkzFMpvNnTabbYfJZHpXp9P9j9vtniVdjyjhuArF9++pqan5cygUupaIZsjbFxcVES2vrKzcKLUNgL+2tnYlxR1F8n6U9Y3K7Xbfkdy20tLSPr/fX05EqqSpTBBFkfX29l5iNpvXAwglOWoEjuO2ejyenxHRUiIqIKJM+XnS/Sx+Fkl7Az6L8DyvEkUxMxQKLejt7b3Dbrc345OVcUeITqc7aLfbNzidznt9Pt9yn883h+d5jSiKLOkBOm7yx13oqlAodKbP57OvXLnyfTmRZA/SgN1uf9nlcn3H5/Mt6uvrmySKIpOReLLZbP4dgMPJgXKTyeSvqqpy2e32VyorK9+sqKj4N2KTcQcRj+mluN5hAH0A/uRyufJTkFAeewybzeYPa2trH/N6vd/w+/1lvb29ukAgcK7H46mqqqraiNjMewIwaDQa/9Dd3T03mXgSkUKh0MzW1tYqo9G4RUbchFit1ndbW1t/4PP5zu/u7p7G8/yk+O8Iis1dtJSWlr6C2ITe5OO7Kysr33C5XL/2eDzf9Hq9ZTzPT6Jjrzt5WkvaG/AZJdPj8VxssVh+A+CjVJohhYiIxeA22e32O3mez/40BJQTMf5gcxaLpQaAL9VDlyRhANvMZvMPRFGcnDRx9jIAG1IQMbntfVqt9q36+vpHnU7nE4gt3RZJTjfTarXPulyuZRRLxUuQ0OVyFQF4f5S2iohNJA5ptdoIRgbu+4qKip73er3LSBZIl5GR+f3+M81m8/3x3yI5xii/XhSxIlXv1tbW3iOKYpZ8ln1ra+t1AN4Y5Q+GEPPWHgCw1u12LyMi7jR4FicsCSc7HI77EAv47oubWWG9Xj9UWlo6UFpa2l9aWjqg1+uH4gSIxh8sHkCfxWLZJpHw0xAxKdY2eRTCCQAOGwyGAYPBMBDXTgIA0mq1xPN8ttysjT98V+h0uqfjhE42a316vd7hdDq/HQqF5lPs35+53e7rADwXP2YvgL85HI7/DgaDZ8nJIklvb6/K4XCUH+U6qf6wNtfW1v4iFAoZkwko6xeuoaGhAsA2xFY4TmmRyM7LAxgyGo17RFGcnJQzy9xu91cBvBS/p+Q2hgEcBPCG1+uV+iLdz+IJCyMauwNbImKMsUm7du3KLiwsFLOzs6Px2Q9H3FR8XzY4OKgOh8OqcDiM4uLiwwBCFO+EE4w9sV27dk0PBoOqs846K6pWq/mcnBy5Rh6x7+DgICZNmiSq1eojFh1ljDFBEHLefvvtQo/HUwgAKpWKcnJyhs1mc3dJSUkvYmQWiRLOHbZr165p7777bkFJSUnkkksu6eY4LohPIgIj5hdKxwDQ9PX15X/wwQdz2tvbz96zZ8/Z/f39c7Kzs9UA2NDQ0PDcuXPb582b5zGbzR6NRuMHEKakB0bWZywcDmc/99xzuqysLC4vLy+an58fycrKChcXF4c5jhMmTZoU1Wg0IgCEw2FVKBRiarVazMnJGUxxXtbS0lLodruLpkyZkpGXlxfOz88PT5s2jUfsz4yfP3/+gEajGSZKXeZxrGCskxDA8S0ucqxanMd7rhOBdP3k10/T1tG+G20bcORMdPm+SccxABwRZSAeSYg/2AJiD3zKydDJVbuPt++S25zqc/JE3uM911jEmCahAgXjAWM6TqhAwXiAQkIFCtIMhYQKFKQZCgkVKEgzFBIqUJBmKCRUoCDNUEioQEGaoZBQgYI0QyGhAgVphkJCBQrSDIWEChSkGQoJFShIMxQSKlCQZigkVKAgzVBIqEBBmqGQUIGCNEMhoQIFaYZCQgUK0gyFhAoUpBkKCRUoSDMUEipQkGYoJFSgIM1QSKhAQZqhkFCBgjRDIaECBWmGQkIFCtIMhYQKFKQZCgkVKEgz/j/waz2NaOLuBwAAAABJRU5ErkJggg==;" parent="1" vertex="1">
          <mxGeometry x="1505" y="771" width="109" height="109" as="geometry" />
        </mxCell>
        <mxCell id="1YSa0I2nqgG9bHJwrjVr-52" value="" style="endArrow=classic;html=1;" parent="1" edge="1">
          <mxGeometry width="50" height="50" relative="1" as="geometry">
            <mxPoint x="1599" y="256" as="sourcePoint" />
            <mxPoint x="1590.5" y="178" as="targetPoint" />
          </mxGeometry>
        </mxCell>
        <mxCell id="1YSa0I2nqgG9bHJwrjVr-53" value="P2P传输" style="text;html=1;align=center;verticalAlign=middle;resizable=0;points=[];autosize=1;" parent="1" vertex="1">
          <mxGeometry x="1529.75" y="216" width="57" height="18" as="geometry" />
        </mxCell>
        <mxCell id="1YSa0I2nqgG9bHJwrjVr-54" value="" style="endArrow=classic;html=1;" parent="1" edge="1">
          <mxGeometry width="50" height="50" relative="1" as="geometry">
            <mxPoint x="1621" y="174" as="sourcePoint" />
            <mxPoint x="1630.5" y="251" as="targetPoint" />
          </mxGeometry>
        </mxCell>
        <mxCell id="1YSa0I2nqgG9bHJwrjVr-55" value="集体维护" style="text;html=1;align=center;verticalAlign=middle;resizable=0;points=[];autosize=1;" parent="1" vertex="1">
          <mxGeometry x="1641.5" y="194.5" width="58" height="18" as="geometry" />
        </mxCell>
        <mxCell id="1YSa0I2nqgG9bHJwrjVr-56" value="" style="endArrow=classic;html=1;" parent="1" edge="1">
          <mxGeometry width="50" height="50" relative="1" as="geometry">
            <mxPoint x="1889" y="254" as="sourcePoint" />
            <mxPoint x="1916.5" y="176" as="targetPoint" />
          </mxGeometry>
        </mxCell>
        <mxCell id="1YSa0I2nqgG9bHJwrjVr-57" value="P2P传输" style="text;html=1;align=center;verticalAlign=middle;resizable=0;points=[];autosize=1;" parent="1" vertex="1">
          <mxGeometry x="1827" y="222.5" width="57" height="18" as="geometry" />
        </mxCell>
        <mxCell id="1YSa0I2nqgG9bHJwrjVr-58" value="" style="endArrow=classic;html=1;" parent="1" edge="1">
          <mxGeometry width="50" height="50" relative="1" as="geometry">
            <mxPoint x="1939" y="185" as="sourcePoint" />
            <mxPoint x="1914" y="261" as="targetPoint" />
          </mxGeometry>
        </mxCell>
        <mxCell id="1YSa0I2nqgG9bHJwrjVr-59" value="集体维护" style="text;html=1;align=center;verticalAlign=middle;resizable=0;points=[];autosize=1;" parent="1" vertex="1">
          <mxGeometry x="1946" y="216" width="58" height="18" as="geometry" />
        </mxCell>
        <mxCell id="1YSa0I2nqgG9bHJwrjVr-60" value="" style="endArrow=classic;html=1;" parent="1" edge="1">
          <mxGeometry width="50" height="50" relative="1" as="geometry">
            <mxPoint x="1607" y="546" as="sourcePoint" />
            <mxPoint x="1656.75" y="486" as="targetPoint" />
          </mxGeometry>
        </mxCell>
        <mxCell id="1YSa0I2nqgG9bHJwrjVr-61" value="P2P传输" style="text;html=1;align=center;verticalAlign=middle;resizable=0;points=[];autosize=1;" parent="1" vertex="1">
          <mxGeometry x="1673.5" y="540" width="57" height="18" as="geometry" />
        </mxCell>
        <mxCell id="1YSa0I2nqgG9bHJwrjVr-62" value="" style="endArrow=classic;html=1;" parent="1" edge="1">
          <mxGeometry width="50" height="50" relative="1" as="geometry">
            <mxPoint x="1681" y="502" as="sourcePoint" />
            <mxPoint x="1634" y="559" as="targetPoint" />
          </mxGeometry>
        </mxCell>
        <mxCell id="1YSa0I2nqgG9bHJwrjVr-63" value="集体维护" style="text;html=1;align=center;verticalAlign=middle;resizable=0;points=[];autosize=1;" parent="1" vertex="1">
          <mxGeometry x="1549" y="503" width="58" height="18" as="geometry" />
        </mxCell>
        <mxCell id="1YSa0I2nqgG9bHJwrjVr-72" value="" style="endArrow=classic;html=1;rounded=0;strokeWidth=4;" parent="1" edge="1">
          <mxGeometry width="50" height="50" relative="1" as="geometry">
            <mxPoint x="1681.25" y="840.5" as="sourcePoint" />
            <mxPoint x="1802.25" y="840.5" as="targetPoint" />
          </mxGeometry>
        </mxCell>
        <mxCell id="1YSa0I2nqgG9bHJwrjVr-73" value="请求" style="text;html=1;align=center;verticalAlign=middle;resizable=0;points=[];autosize=1;strokeColor=none;fillColor=none;fontColor=default;" parent="1" vertex="1">
          <mxGeometry x="1724.25" y="785" width="34" height="18" as="geometry" />
        </mxCell>
        <mxCell id="1YSa0I2nqgG9bHJwrjVr-74" value="结果" style="text;html=1;align=center;verticalAlign=middle;resizable=0;points=[];autosize=1;strokeColor=none;fillColor=none;fontColor=default;" parent="1" vertex="1">
          <mxGeometry x="1721.25" y="859.5" width="34" height="18" as="geometry" />
        </mxCell>
        <mxCell id="1YSa0I2nqgG9bHJwrjVr-76" value="" style="rounded=0;whiteSpace=wrap;html=1;comic=0;fontColor=default;fillColor=#E1ECF7;" parent="1" vertex="1">
          <mxGeometry x="-568" y="870" width="710" height="878" as="geometry" />
        </mxCell>
        <mxCell id="1YSa0I2nqgG9bHJwrjVr-77" value="&lt;font style=&quot;font-size: 30px&quot;&gt;mysql&lt;/font&gt;" style="rounded=0;whiteSpace=wrap;html=1;comic=0;fontColor=default;fillColor=default;labelBackgroundColor=none;" parent="1" vertex="1">
          <mxGeometry x="-502" y="1320" width="179" height="239" as="geometry" />
        </mxCell>
        <mxCell id="1YSa0I2nqgG9bHJwrjVr-79" value="&lt;font style=&quot;font-size: 30px&quot;&gt;flask&lt;/font&gt;" style="rounded=0;whiteSpace=wrap;html=1;comic=0;fontColor=default;fillColor=default;labelBackgroundColor=none;" parent="1" vertex="1">
          <mxGeometry x="-146" y="1319" width="182" height="241" as="geometry" />
        </mxCell>
        <mxCell id="1YSa0I2nqgG9bHJwrjVr-80" value="&lt;font style=&quot;font-size: 30px&quot;&gt;显示页面&lt;/font&gt;" style="rounded=0;whiteSpace=wrap;html=1;comic=0;fontColor=default;fillColor=#E1ECF7;" parent="1" vertex="1">
          <mxGeometry x="528" y="1170" width="327" height="397" as="geometry" />
        </mxCell>
        <mxCell id="1YSa0I2nqgG9bHJwrjVr-81" value="浏览器" style="text;html=1;align=center;verticalAlign=middle;resizable=0;points=[];autosize=1;strokeColor=none;fillColor=none;fontSize=30;fontColor=default;" parent="1" vertex="1">
          <mxGeometry x="635" y="1104" width="100" height="40" as="geometry" />
        </mxCell>
        <mxCell id="1YSa0I2nqgG9bHJwrjVr-82" value="&lt;font style=&quot;font-size: 30px&quot;&gt;区块链&lt;/font&gt;" style="rounded=0;whiteSpace=wrap;html=1;comic=0;fontColor=default;fillColor=default;labelBackgroundColor=none;" parent="1" vertex="1">
          <mxGeometry x="-427.5" y="983" width="429" height="179" as="geometry" />
        </mxCell>
        <mxCell id="1YSa0I2nqgG9bHJwrjVr-83" value="" style="endArrow=classic;html=1;rounded=0;labelBackgroundColor=#E1ECF7;labelBorderColor=none;fontSize=30;fontColor=default;strokeWidth=4;" parent="1" edge="1">
          <mxGeometry width="50" height="50" relative="1" as="geometry">
            <mxPoint x="234" y="1319" as="sourcePoint" />
            <mxPoint x="391" y="1319" as="targetPoint" />
          </mxGeometry>
        </mxCell>
        <mxCell id="1YSa0I2nqgG9bHJwrjVr-84" value="结果" style="text;html=1;align=center;verticalAlign=middle;resizable=0;points=[];autosize=1;strokeColor=none;fillColor=none;fontSize=30;fontColor=default;" parent="1" vertex="1">
          <mxGeometry x="271" y="1248" width="70" height="40" as="geometry" />
        </mxCell>
        <mxCell id="1YSa0I2nqgG9bHJwrjVr-85" value="" style="endArrow=classic;html=1;rounded=0;labelBackgroundColor=#E1ECF7;labelBorderColor=none;fontSize=30;fontColor=default;strokeWidth=4;" parent="1" edge="1">
          <mxGeometry width="50" height="50" relative="1" as="geometry">
            <mxPoint x="377" y="1402" as="sourcePoint" />
            <mxPoint x="237" y="1402" as="targetPoint" />
          </mxGeometry>
        </mxCell>
        <mxCell id="1YSa0I2nqgG9bHJwrjVr-86" value="请求" style="text;html=1;align=center;verticalAlign=middle;resizable=0;points=[];autosize=1;strokeColor=none;fillColor=none;fontSize=30;fontColor=default;" parent="1" vertex="1">
          <mxGeometry x="268" y="1436" width="70" height="40" as="geometry" />
        </mxCell>
        <mxCell id="1YSa0I2nqgG9bHJwrjVr-87" value="&lt;font style=&quot;font-size: 35px&quot;&gt;......&lt;/font&gt;" style="text;html=1;align=center;verticalAlign=middle;resizable=0;points=[];autosize=1;" parent="1" vertex="1">
          <mxGeometry x="2007" y="338.75" width="69" height="27" as="geometry" />
        </mxCell>
        <mxCell id="1YSa0I2nqgG9bHJwrjVr-89" style="edgeStyle=orthogonalEdgeStyle;rounded=0;orthogonalLoop=1;jettySize=auto;html=1;labelBackgroundColor=#E1ECF7;labelBorderColor=none;fontSize=12;fontColor=default;strokeWidth=1;" parent="1" source="1YSa0I2nqgG9bHJwrjVr-88" target="1YSa0I2nqgG9bHJwrjVr-94" edge="1">
          <mxGeometry relative="1" as="geometry">
            <mxPoint x="-2330" y="190" as="targetPoint" />
          </mxGeometry>
        </mxCell>
        <mxCell id="1YSa0I2nqgG9bHJwrjVr-90" style="edgeStyle=orthogonalEdgeStyle;rounded=0;orthogonalLoop=1;jettySize=auto;html=1;entryX=0.5;entryY=0;entryDx=0;entryDy=0;labelBackgroundColor=#E1ECF7;labelBorderColor=none;fontSize=12;fontColor=default;strokeWidth=1;" parent="1" source="1YSa0I2nqgG9bHJwrjVr-88" target="1YSa0I2nqgG9bHJwrjVr-11" edge="1">
          <mxGeometry relative="1" as="geometry" />
        </mxCell>
        <mxCell id="1YSa0I2nqgG9bHJwrjVr-88" value="账户登录" style="rounded=0;whiteSpace=wrap;html=1;labelBackgroundColor=none;comic=0;fontSize=12;fontColor=default;fillColor=default;" parent="1" vertex="1">
          <mxGeometry x="-2578" y="160" width="120" height="60" as="geometry" />
        </mxCell>
        <mxCell id="1YSa0I2nqgG9bHJwrjVr-95" style="edgeStyle=orthogonalEdgeStyle;rounded=0;orthogonalLoop=1;jettySize=auto;html=1;labelBackgroundColor=#E1ECF7;labelBorderColor=none;fontSize=12;fontColor=default;strokeWidth=1;exitX=1;exitY=0.5;exitDx=0;exitDy=0;" parent="1" source="1YSa0I2nqgG9bHJwrjVr-94" target="1YSa0I2nqgG9bHJwrjVr-96" edge="1">
          <mxGeometry relative="1" as="geometry">
            <mxPoint x="-1995.4705882352941" y="190" as="targetPoint" />
            <Array as="points">
              <mxPoint x="-2164" y="187" />
            </Array>
          </mxGeometry>
        </mxCell>
        <mxCell id="1YSa0I2nqgG9bHJwrjVr-94" value="账号查询" style="rounded=0;whiteSpace=wrap;html=1;" parent="1" vertex="1">
          <mxGeometry x="-2284" y="160" width="120" height="60" as="geometry" />
        </mxCell>
        <mxCell id="1YSa0I2nqgG9bHJwrjVr-97" style="edgeStyle=orthogonalEdgeStyle;rounded=0;orthogonalLoop=1;jettySize=auto;html=1;labelBackgroundColor=#E1ECF7;labelBorderColor=none;fontSize=12;fontColor=default;strokeWidth=1;" parent="1" source="1YSa0I2nqgG9bHJwrjVr-96" target="1YSa0I2nqgG9bHJwrjVr-98" edge="1">
          <mxGeometry relative="1" as="geometry">
            <mxPoint x="-2181" y="338" as="targetPoint" />
            <Array as="points">
              <mxPoint x="-1879" y="338" />
            </Array>
          </mxGeometry>
        </mxCell>
        <mxCell id="1YSa0I2nqgG9bHJwrjVr-96" value="查询数据" style="rounded=0;whiteSpace=wrap;html=1;labelBackgroundColor=none;comic=0;fontSize=12;fontColor=default;fillColor=default;" parent="1" vertex="1">
          <mxGeometry x="-1939" y="162" width="120" height="60" as="geometry" />
        </mxCell>
        <mxCell id="1YSa0I2nqgG9bHJwrjVr-99" style="edgeStyle=orthogonalEdgeStyle;rounded=0;orthogonalLoop=1;jettySize=auto;html=1;labelBackgroundColor=#E1ECF7;labelBorderColor=none;fontSize=12;fontColor=default;strokeWidth=1;" parent="1" source="1YSa0I2nqgG9bHJwrjVr-98" target="1YSa0I2nqgG9bHJwrjVr-11" edge="1">
          <mxGeometry relative="1" as="geometry">
            <Array as="points">
              <mxPoint x="-2422" y="340" />
              <mxPoint x="-2422" y="340" />
            </Array>
          </mxGeometry>
        </mxCell>
        <mxCell id="1YSa0I2nqgG9bHJwrjVr-101" style="edgeStyle=orthogonalEdgeStyle;rounded=0;orthogonalLoop=1;jettySize=auto;html=1;labelBackgroundColor=#E1ECF7;labelBorderColor=none;fontSize=12;fontColor=default;strokeWidth=1;entryX=1;entryY=0.5;entryDx=0;entryDy=0;shadow=0;sketch=0;jumpStyle=arc;jumpSize=21;" parent="1" source="1YSa0I2nqgG9bHJwrjVr-98" target="1YSa0I2nqgG9bHJwrjVr-5" edge="1">
          <mxGeometry relative="1" as="geometry">
            <mxPoint x="-2343.705810546875" y="55.313749425551464" as="targetPoint" />
            <Array as="points">
              <mxPoint x="-2217" y="260" />
              <mxPoint x="-2126" y="260" />
              <mxPoint x="-2126" y="58" />
            </Array>
          </mxGeometry>
        </mxCell>
        <mxCell id="1YSa0I2nqgG9bHJwrjVr-98" value="是否正确" style="rhombus;whiteSpace=wrap;html=1;labelBackgroundColor=none;comic=0;fontSize=12;fontColor=default;fillColor=default;" parent="1" vertex="1">
          <mxGeometry x="-2305" y="295.25" width="177" height="89" as="geometry" />
        </mxCell>
        <mxCell id="1YSa0I2nqgG9bHJwrjVr-100" value="是" style="text;html=1;align=center;verticalAlign=middle;resizable=0;points=[];autosize=1;strokeColor=none;fillColor=none;fontSize=12;fontColor=default;" parent="1" vertex="1">
          <mxGeometry x="-2336" y="310" width="22" height="18" as="geometry" />
        </mxCell>
        <mxCell id="1YSa0I2nqgG9bHJwrjVr-92" value="" style="endArrow=none;dashed=1;html=1;dashPattern=1 3;strokeWidth=2;rounded=0;labelBackgroundColor=#E1ECF7;labelBorderColor=none;fontSize=12;fontColor=default;" parent="1" edge="1">
          <mxGeometry width="50" height="50" relative="1" as="geometry">
            <mxPoint x="-2376" y="431" as="sourcePoint" />
            <mxPoint x="-2376" y="-28" as="targetPoint" />
          </mxGeometry>
        </mxCell>
        <mxCell id="1YSa0I2nqgG9bHJwrjVr-93" value="" style="endArrow=none;dashed=1;html=1;dashPattern=1 3;strokeWidth=2;rounded=0;labelBackgroundColor=#E1ECF7;labelBorderColor=none;fontSize=12;fontColor=default;" parent="1" edge="1">
          <mxGeometry width="50" height="50" relative="1" as="geometry">
            <mxPoint x="-2067" y="427" as="sourcePoint" />
            <mxPoint x="-2067" y="-32" as="targetPoint" />
          </mxGeometry>
        </mxCell>
        <mxCell id="1YSa0I2nqgG9bHJwrjVr-102" value="否" style="text;html=1;align=center;verticalAlign=middle;resizable=0;points=[];autosize=1;strokeColor=none;fillColor=none;fontSize=12;fontColor=default;" parent="1" vertex="1">
          <mxGeometry x="-2249" y="263" width="22" height="18" as="geometry" />
        </mxCell>
        <mxCell id="1YSa0I2nqgG9bHJwrjVr-103" value="数据提交" style="text;html=1;align=center;verticalAlign=middle;resizable=0;points=[];autosize=1;strokeColor=none;fillColor=none;fontSize=12;fontColor=default;" parent="1" vertex="1">
          <mxGeometry x="-2443" y="162" width="58" height="18" as="geometry" />
        </mxCell>
        <mxCell id="1YSa0I2nqgG9bHJwrjVr-104" value="数据查询" style="text;html=1;align=center;verticalAlign=middle;resizable=0;points=[];autosize=1;strokeColor=none;fillColor=none;fontSize=12;fontColor=default;" parent="1" vertex="1">
          <mxGeometry x="-2056" y="162" width="58" height="18" as="geometry" />
        </mxCell>
        <mxCell id="1YSa0I2nqgG9bHJwrjVr-105" value="结果返回" style="text;html=1;align=center;verticalAlign=middle;resizable=0;points=[];autosize=1;strokeColor=none;fillColor=none;fontSize=12;fontColor=default;" parent="1" vertex="1">
          <mxGeometry x="-2053" y="310" width="58" height="18" as="geometry" />
        </mxCell>
        <mxCell id="1YSa0I2nqgG9bHJwrjVr-106" value="用户登录流程图" style="text;html=1;align=center;verticalAlign=middle;resizable=0;points=[];autosize=1;strokeColor=none;fillColor=none;fontSize=27;fontColor=default;" parent="1" vertex="1">
          <mxGeometry x="-2336" y="468" width="199" height="36" as="geometry" />
        </mxCell>
        <mxCell id="1YSa0I2nqgG9bHJwrjVr-107" value="浏览器" style="text;html=1;align=center;verticalAlign=middle;resizable=0;points=[];autosize=1;strokeColor=none;fillColor=none;fontSize=27;fontColor=default;" parent="1" vertex="1">
          <mxGeometry x="-2563.5" y="-73" width="91" height="36" as="geometry" />
        </mxCell>
        <mxCell id="1YSa0I2nqgG9bHJwrjVr-108" value="后端" style="text;html=1;align=center;verticalAlign=middle;resizable=0;points=[];autosize=1;strokeColor=none;fillColor=none;fontSize=27;fontColor=default;" parent="1" vertex="1">
          <mxGeometry x="-2258" y="-73" width="64" height="36" as="geometry" />
        </mxCell>
        <mxCell id="1YSa0I2nqgG9bHJwrjVr-109" value="数据库" style="text;html=1;align=center;verticalAlign=middle;resizable=0;points=[];autosize=1;strokeColor=none;fillColor=none;fontSize=27;fontColor=default;" parent="1" vertex="1">
          <mxGeometry x="-1937" y="-73" width="91" height="36" as="geometry" />
        </mxCell>
        <mxCell id="1YSa0I2nqgG9bHJwrjVr-112" style="edgeStyle=orthogonalEdgeStyle;rounded=0;sketch=0;jumpStyle=arc;jumpSize=21;orthogonalLoop=1;jettySize=auto;html=1;shadow=0;labelBackgroundColor=#E1ECF7;labelBorderColor=none;fontSize=12;fontColor=default;strokeWidth=1;entryX=0;entryY=0.5;entryDx=0;entryDy=0;" parent="1" source="1YSa0I2nqgG9bHJwrjVr-110" target="1YSa0I2nqgG9bHJwrjVr-113" edge="1">
          <mxGeometry relative="1" as="geometry">
            <mxPoint x="-2333.1427699497767" y="951.25" as="targetPoint" />
          </mxGeometry>
        </mxCell>
        <mxCell id="1YSa0I2nqgG9bHJwrjVr-124" style="edgeStyle=orthogonalEdgeStyle;rounded=0;sketch=0;jumpStyle=arc;jumpSize=21;orthogonalLoop=1;jettySize=auto;html=1;shadow=0;labelBackgroundColor=#E1ECF7;labelBorderColor=none;fontSize=12;fontColor=default;strokeWidth=1;" parent="1" source="1YSa0I2nqgG9bHJwrjVr-110" target="1YSa0I2nqgG9bHJwrjVr-123" edge="1">
          <mxGeometry relative="1" as="geometry" />
        </mxCell>
        <mxCell id="1YSa0I2nqgG9bHJwrjVr-110" value="提交请求" style="rounded=0;whiteSpace=wrap;html=1;labelBackgroundColor=none;comic=0;fontSize=12;fontColor=default;fillColor=default;" parent="1" vertex="1">
          <mxGeometry x="-2612" y="921.25" width="120" height="60" as="geometry" />
        </mxCell>
        <mxCell id="1YSa0I2nqgG9bHJwrjVr-116" style="edgeStyle=orthogonalEdgeStyle;rounded=0;sketch=0;jumpStyle=arc;jumpSize=21;orthogonalLoop=1;jettySize=auto;html=1;shadow=0;labelBackgroundColor=#E1ECF7;labelBorderColor=none;fontSize=12;fontColor=default;strokeWidth=1;" parent="1" source="1YSa0I2nqgG9bHJwrjVr-113" edge="1">
          <mxGeometry relative="1" as="geometry">
            <mxPoint x="-1949.3332170758927" y="951.25" as="targetPoint" />
          </mxGeometry>
        </mxCell>
        <mxCell id="1YSa0I2nqgG9bHJwrjVr-113" value="账户检查" style="rounded=0;whiteSpace=wrap;html=1;labelBackgroundColor=none;comic=0;fontSize=12;fontColor=default;fillColor=default;" parent="1" vertex="1">
          <mxGeometry x="-2290" y="921.25" width="120" height="60" as="geometry" />
        </mxCell>
        <mxCell id="1YSa0I2nqgG9bHJwrjVr-120" style="edgeStyle=orthogonalEdgeStyle;rounded=0;sketch=0;jumpStyle=arc;jumpSize=21;orthogonalLoop=1;jettySize=auto;html=1;entryX=1;entryY=0.5;entryDx=0;entryDy=0;shadow=0;labelBackgroundColor=#E1ECF7;labelBorderColor=none;fontSize=12;fontColor=default;strokeWidth=1;" parent="1" source="1YSa0I2nqgG9bHJwrjVr-118" target="1YSa0I2nqgG9bHJwrjVr-119" edge="1">
          <mxGeometry relative="1" as="geometry">
            <Array as="points">
              <mxPoint x="-1887" y="1095.25" />
            </Array>
          </mxGeometry>
        </mxCell>
        <mxCell id="1YSa0I2nqgG9bHJwrjVr-118" value="查询数据" style="rounded=0;whiteSpace=wrap;html=1;labelBackgroundColor=none;comic=0;fontSize=12;fontColor=default;fillColor=default;" parent="1" vertex="1">
          <mxGeometry x="-1941" y="921.25" width="120" height="60" as="geometry" />
        </mxCell>
        <mxCell id="1YSa0I2nqgG9bHJwrjVr-125" style="edgeStyle=orthogonalEdgeStyle;rounded=0;sketch=0;jumpStyle=arc;jumpSize=21;orthogonalLoop=1;jettySize=auto;html=1;shadow=0;labelBackgroundColor=#E1ECF7;labelBorderColor=none;fontSize=12;fontColor=default;strokeWidth=1;" parent="1" source="1YSa0I2nqgG9bHJwrjVr-119" target="1YSa0I2nqgG9bHJwrjVr-121" edge="1">
          <mxGeometry relative="1" as="geometry">
            <Array as="points">
              <mxPoint x="-2217" y="1015" />
              <mxPoint x="-2079" y="1015" />
              <mxPoint x="-2079" y="822" />
            </Array>
          </mxGeometry>
        </mxCell>
        <mxCell id="1YSa0I2nqgG9bHJwrjVr-127" style="edgeStyle=orthogonalEdgeStyle;rounded=0;sketch=0;jumpStyle=arc;jumpSize=21;orthogonalLoop=1;jettySize=auto;html=1;shadow=0;labelBackgroundColor=#E1ECF7;labelBorderColor=none;fontSize=12;fontColor=default;strokeWidth=1;" parent="1" source="1YSa0I2nqgG9bHJwrjVr-119" target="1YSa0I2nqgG9bHJwrjVr-123" edge="1">
          <mxGeometry relative="1" as="geometry" />
        </mxCell>
        <mxCell id="1YSa0I2nqgG9bHJwrjVr-119" value="是否账户重复" style="rhombus;whiteSpace=wrap;html=1;labelBackgroundColor=none;comic=0;fontSize=12;fontColor=default;fillColor=default;" parent="1" vertex="1">
          <mxGeometry x="-2304" y="1055.25" width="173" height="80" as="geometry" />
        </mxCell>
        <mxCell id="1YSa0I2nqgG9bHJwrjVr-115" value="" style="endArrow=none;dashed=1;html=1;dashPattern=1 3;strokeWidth=2;rounded=0;labelBackgroundColor=#E1ECF7;labelBorderColor=none;fontSize=12;fontColor=default;" parent="1" edge="1">
          <mxGeometry width="50" height="50" relative="1" as="geometry">
            <mxPoint x="-2045" y="1239.5000000000002" as="sourcePoint" />
            <mxPoint x="-2045" y="647" as="targetPoint" />
          </mxGeometry>
        </mxCell>
        <mxCell id="1YSa0I2nqgG9bHJwrjVr-122" style="edgeStyle=orthogonalEdgeStyle;rounded=0;sketch=0;jumpStyle=arc;jumpSize=21;orthogonalLoop=1;jettySize=auto;html=1;shadow=0;labelBackgroundColor=#E1ECF7;labelBorderColor=none;fontSize=12;fontColor=default;strokeWidth=1;" parent="1" source="1YSa0I2nqgG9bHJwrjVr-121" target="1YSa0I2nqgG9bHJwrjVr-110" edge="1">
          <mxGeometry relative="1" as="geometry" />
        </mxCell>
        <mxCell id="1YSa0I2nqgG9bHJwrjVr-121" value="页面显示" style="rounded=0;whiteSpace=wrap;html=1;labelBackgroundColor=none;comic=0;fontSize=12;fontColor=default;fillColor=default;" parent="1" vertex="1">
          <mxGeometry x="-2612" y="792" width="120" height="60" as="geometry" />
        </mxCell>
        <mxCell id="1YSa0I2nqgG9bHJwrjVr-123" value="添加成功" style="rounded=0;whiteSpace=wrap;html=1;labelBackgroundColor=none;comic=0;fontSize=12;fontColor=default;fillColor=default;" parent="1" vertex="1">
          <mxGeometry x="-2612" y="1063.5" width="120" height="60" as="geometry" />
        </mxCell>
        <mxCell id="1YSa0I2nqgG9bHJwrjVr-111" value="" style="endArrow=none;dashed=1;html=1;dashPattern=1 3;strokeWidth=2;rounded=0;labelBackgroundColor=#E1ECF7;labelBorderColor=none;fontSize=12;fontColor=default;" parent="1" edge="1">
          <mxGeometry width="50" height="50" relative="1" as="geometry">
            <mxPoint x="-2402" y="1240.5" as="sourcePoint" />
            <mxPoint x="-2402" y="645" as="targetPoint" />
          </mxGeometry>
        </mxCell>
        <mxCell id="1YSa0I2nqgG9bHJwrjVr-126" value="是" style="text;html=1;align=center;verticalAlign=middle;resizable=0;points=[];autosize=1;strokeColor=none;fillColor=none;fontSize=12;fontColor=default;" parent="1" vertex="1">
          <mxGeometry x="-2268" y="1028" width="22" height="18" as="geometry" />
        </mxCell>
        <mxCell id="1YSa0I2nqgG9bHJwrjVr-128" value="否" style="text;html=1;align=center;verticalAlign=middle;resizable=0;points=[];autosize=1;strokeColor=none;fillColor=none;fontSize=12;fontColor=default;" parent="1" vertex="1">
          <mxGeometry x="-2355" y="1066" width="22" height="18" as="geometry" />
        </mxCell>
        <mxCell id="1YSa0I2nqgG9bHJwrjVr-129" value="浏览器" style="text;html=1;align=center;verticalAlign=middle;resizable=0;points=[];autosize=1;strokeColor=none;fillColor=none;fontSize=27;fontColor=default;" parent="1" vertex="1">
          <mxGeometry x="-2596" y="680" width="91" height="36" as="geometry" />
        </mxCell>
        <mxCell id="1YSa0I2nqgG9bHJwrjVr-130" value="后端" style="text;html=1;align=center;verticalAlign=middle;resizable=0;points=[];autosize=1;strokeColor=none;fillColor=none;fontSize=27;fontColor=default;" parent="1" vertex="1">
          <mxGeometry x="-2262" y="680" width="64" height="36" as="geometry" />
        </mxCell>
        <mxCell id="1YSa0I2nqgG9bHJwrjVr-131" value="数据库" style="text;html=1;align=center;verticalAlign=middle;resizable=0;points=[];autosize=1;strokeColor=none;fillColor=none;fontSize=27;fontColor=default;" parent="1" vertex="1">
          <mxGeometry x="-1950" y="680" width="91" height="36" as="geometry" />
        </mxCell>
        <mxCell id="1YSa0I2nqgG9bHJwrjVr-132" value="添加用户流程图" style="text;html=1;align=center;verticalAlign=middle;resizable=0;points=[];autosize=1;strokeColor=none;fillColor=none;fontSize=27;fontColor=default;" parent="1" vertex="1">
          <mxGeometry x="-2320" y="1277" width="199" height="36" as="geometry" />
        </mxCell>
        <mxCell id="1YSa0I2nqgG9bHJwrjVr-133" value="数据提交" style="text;html=1;align=center;verticalAlign=middle;resizable=0;points=[];autosize=1;strokeColor=none;fillColor=none;fontSize=12;fontColor=default;" parent="1" vertex="1">
          <mxGeometry x="-2473" y="921.25" width="58" height="18" as="geometry" />
        </mxCell>
        <mxCell id="1YSa0I2nqgG9bHJwrjVr-134" value="数据查询" style="text;html=1;align=center;verticalAlign=middle;resizable=0;points=[];autosize=1;strokeColor=none;fillColor=none;fontSize=12;fontColor=default;" parent="1" vertex="1">
          <mxGeometry x="-2033" y="925" width="58" height="18" as="geometry" />
        </mxCell>
        <mxCell id="1YSa0I2nqgG9bHJwrjVr-135" value="结果返回" style="text;html=1;align=center;verticalAlign=middle;resizable=0;points=[];autosize=1;strokeColor=none;fillColor=none;fontSize=12;fontColor=default;" parent="1" vertex="1">
          <mxGeometry x="-2020" y="1070" width="58" height="18" as="geometry" />
        </mxCell>
        <mxCell id="x2tv8OblZjc51f7WjR3A-1" value="" style="endArrow=none;dashed=1;html=1;dashPattern=1 3;strokeWidth=2;rounded=0;labelBackgroundColor=#E1ECF7;labelBorderColor=none;fontSize=12;fontColor=default;" edge="1" parent="1">
          <mxGeometry width="50" height="50" relative="1" as="geometry">
            <mxPoint x="-2379.5" y="2198" as="sourcePoint" />
            <mxPoint x="-2379.5" y="1602.5" as="targetPoint" />
          </mxGeometry>
        </mxCell>
        <mxCell id="x2tv8OblZjc51f7WjR3A-2" value="" style="endArrow=none;dashed=1;html=1;dashPattern=1 3;strokeWidth=2;rounded=0;labelBackgroundColor=#E1ECF7;labelBorderColor=none;fontSize=12;fontColor=default;" edge="1" parent="1">
          <mxGeometry width="50" height="50" relative="1" as="geometry">
            <mxPoint x="-2165.5" y="2211.75" as="sourcePoint" />
            <mxPoint x="-2165.5" y="1616.25" as="targetPoint" />
          </mxGeometry>
        </mxCell>
        <mxCell id="x2tv8OblZjc51f7WjR3A-5" value="" style="edgeStyle=orthogonalEdgeStyle;rounded=0;orthogonalLoop=1;jettySize=auto;html=1;" edge="1" parent="1" source="x2tv8OblZjc51f7WjR3A-3" target="x2tv8OblZjc51f7WjR3A-4">
          <mxGeometry relative="1" as="geometry" />
        </mxCell>
        <mxCell id="x2tv8OblZjc51f7WjR3A-3" value="密钥生成" style="rounded=0;whiteSpace=wrap;html=1;labelBackgroundColor=none;comic=0;fontSize=12;fontColor=default;fillColor=default;" vertex="1" parent="1">
          <mxGeometry x="-2618.5" y="1638" width="120" height="60" as="geometry" />
        </mxCell>
        <mxCell id="x2tv8OblZjc51f7WjR3A-9" value="" style="edgeStyle=orthogonalEdgeStyle;rounded=0;orthogonalLoop=1;jettySize=auto;html=1;" edge="1" parent="1" source="x2tv8OblZjc51f7WjR3A-4" target="x2tv8OblZjc51f7WjR3A-8">
          <mxGeometry relative="1" as="geometry" />
        </mxCell>
        <mxCell id="x2tv8OblZjc51f7WjR3A-4" value="密钥分割" style="rounded=0;whiteSpace=wrap;html=1;labelBackgroundColor=none;comic=0;fontSize=12;fontColor=default;fillColor=default;" vertex="1" parent="1">
          <mxGeometry x="-2618.5" y="1747" width="120" height="60" as="geometry" />
        </mxCell>
        <mxCell id="x2tv8OblZjc51f7WjR3A-7" value="区块链" style="text;html=1;align=center;verticalAlign=middle;resizable=0;points=[];autosize=1;strokeColor=none;fillColor=none;fontSize=27;fontColor=default;" vertex="1" parent="1">
          <mxGeometry x="-2604" y="1560" width="91" height="36" as="geometry" />
        </mxCell>
        <mxCell id="x2tv8OblZjc51f7WjR3A-12" value="" style="edgeStyle=orthogonalEdgeStyle;rounded=0;orthogonalLoop=1;jettySize=auto;html=1;" edge="1" parent="1" source="x2tv8OblZjc51f7WjR3A-8" target="x2tv8OblZjc51f7WjR3A-11">
          <mxGeometry relative="1" as="geometry" />
        </mxCell>
        <mxCell id="x2tv8OblZjc51f7WjR3A-8" value="密钥加密" style="rounded=0;whiteSpace=wrap;html=1;labelBackgroundColor=none;comic=0;fontSize=12;fontColor=default;fillColor=default;" vertex="1" parent="1">
          <mxGeometry x="-2618.5" y="1868" width="120" height="60" as="geometry" />
        </mxCell>
        <mxCell id="x2tv8OblZjc51f7WjR3A-10" value="网络传输" style="text;html=1;align=center;verticalAlign=middle;resizable=0;points=[];autosize=1;strokeColor=none;fillColor=none;" vertex="1" parent="1">
          <mxGeometry x="-2482.5" y="1951.25" width="58" height="18" as="geometry" />
        </mxCell>
        <mxCell id="x2tv8OblZjc51f7WjR3A-18" style="edgeStyle=orthogonalEdgeStyle;rounded=0;orthogonalLoop=1;jettySize=auto;html=1;" edge="1" parent="1" source="x2tv8OblZjc51f7WjR3A-11" target="x2tv8OblZjc51f7WjR3A-19">
          <mxGeometry relative="1" as="geometry">
            <mxPoint x="-2106.6959587545953" y="2041.2549258961394" as="targetPoint" />
            <Array as="points">
              <mxPoint x="-2067.5" y="1979" />
            </Array>
          </mxGeometry>
        </mxCell>
        <mxCell id="x2tv8OblZjc51f7WjR3A-28" value="" style="edgeStyle=orthogonalEdgeStyle;rounded=0;orthogonalLoop=1;jettySize=auto;html=1;" edge="1" parent="1" source="x2tv8OblZjc51f7WjR3A-11" target="x2tv8OblZjc51f7WjR3A-27">
          <mxGeometry relative="1" as="geometry" />
        </mxCell>
        <mxCell id="x2tv8OblZjc51f7WjR3A-11" value="密钥分发" style="rounded=0;whiteSpace=wrap;html=1;labelBackgroundColor=none;comic=0;fontSize=12;fontColor=default;fillColor=default;" vertex="1" parent="1">
          <mxGeometry x="-2618.5" y="1977" width="120" height="60" as="geometry" />
        </mxCell>
        <mxCell id="x2tv8OblZjc51f7WjR3A-30" value="" style="edgeStyle=orthogonalEdgeStyle;rounded=0;orthogonalLoop=1;jettySize=auto;html=1;" edge="1" parent="1" source="x2tv8OblZjc51f7WjR3A-16" target="x2tv8OblZjc51f7WjR3A-29">
          <mxGeometry relative="1" as="geometry" />
        </mxCell>
        <mxCell id="x2tv8OblZjc51f7WjR3A-16" value="密钥接收" style="rounded=0;whiteSpace=wrap;html=1;labelBackgroundColor=none;comic=0;fontSize=12;fontColor=default;fillColor=default;" vertex="1" parent="1">
          <mxGeometry x="-2325.5" y="2006" width="120" height="60" as="geometry" />
        </mxCell>
        <mxCell id="x2tv8OblZjc51f7WjR3A-32" value="" style="edgeStyle=orthogonalEdgeStyle;rounded=0;orthogonalLoop=1;jettySize=auto;html=1;" edge="1" parent="1" source="x2tv8OblZjc51f7WjR3A-19" target="x2tv8OblZjc51f7WjR3A-31">
          <mxGeometry relative="1" as="geometry" />
        </mxCell>
        <mxCell id="x2tv8OblZjc51f7WjR3A-19" value="密钥接收" style="rounded=0;whiteSpace=wrap;html=1;labelBackgroundColor=none;comic=0;fontSize=12;fontColor=default;fillColor=default;" vertex="1" parent="1">
          <mxGeometry x="-2130.5" y="2006" width="120" height="60" as="geometry" />
        </mxCell>
        <mxCell id="x2tv8OblZjc51f7WjR3A-34" value="" style="edgeStyle=orthogonalEdgeStyle;rounded=0;orthogonalLoop=1;jettySize=auto;html=1;" edge="1" parent="1" source="x2tv8OblZjc51f7WjR3A-20" target="x2tv8OblZjc51f7WjR3A-33">
          <mxGeometry relative="1" as="geometry" />
        </mxCell>
        <mxCell id="x2tv8OblZjc51f7WjR3A-20" value="密钥接收" style="rounded=0;whiteSpace=wrap;html=1;labelBackgroundColor=none;comic=0;fontSize=12;fontColor=default;fillColor=default;" vertex="1" parent="1">
          <mxGeometry x="-1936.5" y="2006" width="120" height="60" as="geometry" />
        </mxCell>
        <mxCell id="x2tv8OblZjc51f7WjR3A-21" style="edgeStyle=orthogonalEdgeStyle;rounded=0;orthogonalLoop=1;jettySize=auto;html=1;" edge="1" parent="1" target="x2tv8OblZjc51f7WjR3A-20">
          <mxGeometry relative="1" as="geometry">
            <mxPoint x="-2067.4411764705883" y="2006" as="targetPoint" />
            <mxPoint x="-2498.5000000000005" y="1979.0588235294117" as="sourcePoint" />
            <Array as="points">
              <mxPoint x="-1876.5" y="1979" />
            </Array>
          </mxGeometry>
        </mxCell>
        <mxCell id="x2tv8OblZjc51f7WjR3A-22" style="edgeStyle=orthogonalEdgeStyle;rounded=0;orthogonalLoop=1;jettySize=auto;html=1;" edge="1" parent="1" source="x2tv8OblZjc51f7WjR3A-11" target="x2tv8OblZjc51f7WjR3A-16">
          <mxGeometry relative="1" as="geometry">
            <mxPoint x="-2057.4411764705883" y="2016" as="targetPoint" />
            <mxPoint x="-2488.5000000000005" y="1989.0588235294117" as="sourcePoint" />
            <Array as="points">
              <mxPoint x="-2265.5" y="1979" />
            </Array>
          </mxGeometry>
        </mxCell>
        <mxCell id="x2tv8OblZjc51f7WjR3A-23" value="" style="endArrow=none;dashed=1;html=1;dashPattern=1 3;strokeWidth=2;rounded=0;labelBackgroundColor=#E1ECF7;labelBorderColor=none;fontSize=12;fontColor=default;" edge="1" parent="1">
          <mxGeometry width="50" height="50" relative="1" as="geometry">
            <mxPoint x="-1970.5" y="2209.7499999999995" as="sourcePoint" />
            <mxPoint x="-1970.5" y="1614.25" as="targetPoint" />
          </mxGeometry>
        </mxCell>
        <mxCell id="x2tv8OblZjc51f7WjR3A-24" value="用户一" style="text;html=1;align=center;verticalAlign=middle;resizable=0;points=[];autosize=1;strokeColor=none;fillColor=none;fontSize=27;fontColor=default;" vertex="1" parent="1">
          <mxGeometry x="-2311" y="1560" width="91" height="36" as="geometry" />
        </mxCell>
        <mxCell id="x2tv8OblZjc51f7WjR3A-25" value="用户二" style="text;html=1;align=center;verticalAlign=middle;resizable=0;points=[];autosize=1;strokeColor=none;fillColor=none;fontSize=27;fontColor=default;" vertex="1" parent="1">
          <mxGeometry x="-2116" y="1565" width="91" height="36" as="geometry" />
        </mxCell>
        <mxCell id="x2tv8OblZjc51f7WjR3A-26" value="用户三" style="text;html=1;align=center;verticalAlign=middle;resizable=0;points=[];autosize=1;strokeColor=none;fillColor=none;fontSize=27;fontColor=default;" vertex="1" parent="1">
          <mxGeometry x="-1930.5" y="1565" width="91" height="36" as="geometry" />
        </mxCell>
        <mxCell id="x2tv8OblZjc51f7WjR3A-27" value="分发成功" style="rounded=0;whiteSpace=wrap;html=1;labelBackgroundColor=none;comic=0;fontSize=12;fontColor=default;fillColor=default;" vertex="1" parent="1">
          <mxGeometry x="-2618.5" y="2103.62" width="120" height="60" as="geometry" />
        </mxCell>
        <mxCell id="x2tv8OblZjc51f7WjR3A-29" value="密钥保存" style="rounded=0;whiteSpace=wrap;html=1;labelBackgroundColor=none;comic=0;fontSize=12;fontColor=default;fillColor=default;" vertex="1" parent="1">
          <mxGeometry x="-2325.5" y="2109.12" width="120" height="60" as="geometry" />
        </mxCell>
        <mxCell id="x2tv8OblZjc51f7WjR3A-31" value="密钥保存" style="rounded=0;whiteSpace=wrap;html=1;labelBackgroundColor=none;comic=0;fontSize=12;fontColor=default;fillColor=default;" vertex="1" parent="1">
          <mxGeometry x="-2130.5" y="2109.12" width="120" height="60" as="geometry" />
        </mxCell>
        <mxCell id="x2tv8OblZjc51f7WjR3A-33" value="密钥保存" style="rounded=0;whiteSpace=wrap;html=1;labelBackgroundColor=none;comic=0;fontSize=12;fontColor=default;fillColor=default;" vertex="1" parent="1">
          <mxGeometry x="-1936.5" y="2109.12" width="120" height="60" as="geometry" />
        </mxCell>
        <mxCell id="x2tv8OblZjc51f7WjR3A-35" value="密钥分割发放流程图" style="text;html=1;align=center;verticalAlign=middle;resizable=0;points=[];autosize=1;strokeColor=none;fillColor=none;fontSize=27;fontColor=default;" vertex="1" parent="1">
          <mxGeometry x="-2302.5" y="2266.87" width="253" height="36" as="geometry" />
        </mxCell>
        <mxCell id="x2tv8OblZjc51f7WjR3A-36" value="" style="endArrow=none;dashed=1;html=1;dashPattern=1 3;strokeWidth=2;rounded=0;labelBackgroundColor=#E1ECF7;labelBorderColor=none;fontSize=12;fontColor=default;" edge="1" parent="1">
          <mxGeometry width="50" height="50" relative="1" as="geometry">
            <mxPoint x="-2424.2799999999997" y="3172.5" as="sourcePoint" />
            <mxPoint x="-2424.2799999999997" y="2577" as="targetPoint" />
          </mxGeometry>
        </mxCell>
        <mxCell id="x2tv8OblZjc51f7WjR3A-45" value="" style="edgeStyle=orthogonalEdgeStyle;rounded=0;orthogonalLoop=1;jettySize=auto;html=1;" edge="1" parent="1" source="x2tv8OblZjc51f7WjR3A-37" target="x2tv8OblZjc51f7WjR3A-44">
          <mxGeometry relative="1" as="geometry" />
        </mxCell>
        <mxCell id="x2tv8OblZjc51f7WjR3A-37" value="接收密钥" style="rounded=0;whiteSpace=wrap;html=1;" vertex="1" parent="1">
          <mxGeometry x="-2615.06" y="2642" width="120" height="60" as="geometry" />
        </mxCell>
        <mxCell id="x2tv8OblZjc51f7WjR3A-38" value="区块链" style="text;html=1;align=center;verticalAlign=middle;resizable=0;points=[];autosize=1;strokeColor=none;fillColor=none;fontSize=27;fontColor=default;" vertex="1" parent="1">
          <mxGeometry x="-2600.56" y="2500" width="91" height="36" as="geometry" />
        </mxCell>
        <mxCell id="x2tv8OblZjc51f7WjR3A-39" value="用户一" style="text;html=1;align=center;verticalAlign=middle;resizable=0;points=[];autosize=1;strokeColor=none;fillColor=none;fontSize=27;fontColor=default;" vertex="1" parent="1">
          <mxGeometry x="-2368" y="2500" width="91" height="36" as="geometry" />
        </mxCell>
        <mxCell id="x2tv8OblZjc51f7WjR3A-40" value="用户二" style="text;html=1;align=center;verticalAlign=middle;resizable=0;points=[];autosize=1;strokeColor=none;fillColor=none;fontSize=27;fontColor=default;" vertex="1" parent="1">
          <mxGeometry x="-2173" y="2505" width="91" height="36" as="geometry" />
        </mxCell>
        <mxCell id="x2tv8OblZjc51f7WjR3A-41" value="用户三" style="text;html=1;align=center;verticalAlign=middle;resizable=0;points=[];autosize=1;strokeColor=none;fillColor=none;fontSize=27;fontColor=default;" vertex="1" parent="1">
          <mxGeometry x="-1987.5" y="2505" width="91" height="36" as="geometry" />
        </mxCell>
        <mxCell id="x2tv8OblZjc51f7WjR3A-42" value="" style="endArrow=none;dashed=1;html=1;dashPattern=1 3;strokeWidth=2;rounded=0;labelBackgroundColor=#E1ECF7;labelBorderColor=none;fontSize=12;fontColor=default;" edge="1" parent="1">
          <mxGeometry width="50" height="50" relative="1" as="geometry">
            <mxPoint x="-2207.1699999999996" y="3178.5" as="sourcePoint" />
            <mxPoint x="-2207.1699999999996" y="2583.0000000000005" as="targetPoint" />
          </mxGeometry>
        </mxCell>
        <mxCell id="x2tv8OblZjc51f7WjR3A-43" value="" style="endArrow=none;dashed=1;html=1;dashPattern=1 3;strokeWidth=2;rounded=0;labelBackgroundColor=#E1ECF7;labelBorderColor=none;fontSize=12;fontColor=default;" edge="1" parent="1">
          <mxGeometry width="50" height="50" relative="1" as="geometry">
            <mxPoint x="-2012.1699999999992" y="3172.5" as="sourcePoint" />
            <mxPoint x="-2012.1699999999992" y="2577" as="targetPoint" />
          </mxGeometry>
        </mxCell>
        <mxCell id="x2tv8OblZjc51f7WjR3A-46" style="edgeStyle=orthogonalEdgeStyle;rounded=0;orthogonalLoop=1;jettySize=auto;html=1;" edge="1" parent="1" source="x2tv8OblZjc51f7WjR3A-44" target="x2tv8OblZjc51f7WjR3A-65">
          <mxGeometry relative="1" as="geometry">
            <mxPoint x="-2725" y="2952" as="targetPoint" />
            <Array as="points">
              <mxPoint x="-2717" y="2850" />
            </Array>
          </mxGeometry>
        </mxCell>
        <mxCell id="x2tv8OblZjc51f7WjR3A-63" value="" style="edgeStyle=orthogonalEdgeStyle;rounded=0;orthogonalLoop=1;jettySize=auto;html=1;fontSize=11;" edge="1" parent="1" source="x2tv8OblZjc51f7WjR3A-44" target="x2tv8OblZjc51f7WjR3A-62">
          <mxGeometry relative="1" as="geometry">
            <Array as="points">
              <mxPoint x="-2564" y="2954" />
              <mxPoint x="-2564" y="2954" />
            </Array>
          </mxGeometry>
        </mxCell>
        <mxCell id="x2tv8OblZjc51f7WjR3A-44" value="接收密钥数是否大于规定&lt;br&gt;密钥数" style="rhombus;whiteSpace=wrap;html=1;rounded=0;" vertex="1" parent="1">
          <mxGeometry x="-2650" y="2816" width="172.06" height="98" as="geometry" />
        </mxCell>
        <mxCell id="x2tv8OblZjc51f7WjR3A-47" value="否" style="text;html=1;align=center;verticalAlign=middle;resizable=0;points=[];autosize=1;strokeColor=none;fillColor=none;" vertex="1" parent="1">
          <mxGeometry x="-2688" y="2807" width="22" height="18" as="geometry" />
        </mxCell>
        <mxCell id="x2tv8OblZjc51f7WjR3A-53" value="" style="edgeStyle=orthogonalEdgeStyle;rounded=0;orthogonalLoop=1;jettySize=auto;html=1;fontSize=11;" edge="1" parent="1" source="x2tv8OblZjc51f7WjR3A-48" target="x2tv8OblZjc51f7WjR3A-52">
          <mxGeometry relative="1" as="geometry" />
        </mxCell>
        <mxCell id="x2tv8OblZjc51f7WjR3A-48" value="密钥加密" style="rounded=0;whiteSpace=wrap;html=1;" vertex="1" parent="1">
          <mxGeometry x="-2382" y="2639" width="120" height="60" as="geometry" />
        </mxCell>
        <mxCell id="x2tv8OblZjc51f7WjR3A-55" value="" style="edgeStyle=orthogonalEdgeStyle;rounded=0;orthogonalLoop=1;jettySize=auto;html=1;fontSize=11;" edge="1" parent="1" source="x2tv8OblZjc51f7WjR3A-49" target="x2tv8OblZjc51f7WjR3A-54">
          <mxGeometry relative="1" as="geometry" />
        </mxCell>
        <mxCell id="x2tv8OblZjc51f7WjR3A-49" value="密钥加密" style="rounded=0;whiteSpace=wrap;html=1;" vertex="1" parent="1">
          <mxGeometry x="-2169.5" y="2639" width="120" height="60" as="geometry" />
        </mxCell>
        <mxCell id="x2tv8OblZjc51f7WjR3A-57" value="" style="edgeStyle=orthogonalEdgeStyle;rounded=0;orthogonalLoop=1;jettySize=auto;html=1;fontSize=11;" edge="1" parent="1" source="x2tv8OblZjc51f7WjR3A-51" target="x2tv8OblZjc51f7WjR3A-56">
          <mxGeometry relative="1" as="geometry" />
        </mxCell>
        <mxCell id="x2tv8OblZjc51f7WjR3A-51" value="密钥加密" style="rounded=0;whiteSpace=wrap;html=1;" vertex="1" parent="1">
          <mxGeometry x="-1964.5" y="2639" width="120" height="60" as="geometry" />
        </mxCell>
        <mxCell id="x2tv8OblZjc51f7WjR3A-76" style="edgeStyle=orthogonalEdgeStyle;rounded=0;orthogonalLoop=1;jettySize=auto;html=1;fontSize=11;" edge="1" parent="1" source="x2tv8OblZjc51f7WjR3A-52" target="x2tv8OblZjc51f7WjR3A-44">
          <mxGeometry relative="1" as="geometry">
            <mxPoint x="-2322" y="2883.3528693704047" as="targetPoint" />
            <Array as="points">
              <mxPoint x="-2322" y="2865" />
            </Array>
          </mxGeometry>
        </mxCell>
        <mxCell id="x2tv8OblZjc51f7WjR3A-52" value="密钥发送" style="rounded=0;whiteSpace=wrap;html=1;" vertex="1" parent="1">
          <mxGeometry x="-2382" y="2779" width="120" height="60" as="geometry" />
        </mxCell>
        <mxCell id="x2tv8OblZjc51f7WjR3A-54" value="密钥发送" style="rounded=0;whiteSpace=wrap;html=1;" vertex="1" parent="1">
          <mxGeometry x="-2169.5" y="2779" width="120" height="60" as="geometry" />
        </mxCell>
        <mxCell id="x2tv8OblZjc51f7WjR3A-56" value="密钥发送" style="rounded=0;whiteSpace=wrap;html=1;" vertex="1" parent="1">
          <mxGeometry x="-1964.5" y="2779" width="120" height="60" as="geometry" />
        </mxCell>
        <mxCell id="x2tv8OblZjc51f7WjR3A-60" style="edgeStyle=orthogonalEdgeStyle;rounded=0;orthogonalLoop=1;jettySize=auto;html=1;fontSize=11;" edge="1" parent="1" source="x2tv8OblZjc51f7WjR3A-54" target="x2tv8OblZjc51f7WjR3A-44">
          <mxGeometry relative="1" as="geometry">
            <mxPoint x="-2312" y="2849" as="sourcePoint" />
            <mxPoint x="-2481.7419200000004" y="2872.9359999999997" as="targetPoint" />
            <Array as="points">
              <mxPoint x="-2110" y="2864" />
            </Array>
          </mxGeometry>
        </mxCell>
        <mxCell id="x2tv8OblZjc51f7WjR3A-61" style="edgeStyle=orthogonalEdgeStyle;rounded=0;orthogonalLoop=1;jettySize=auto;html=1;fontSize=11;" edge="1" parent="1" target="x2tv8OblZjc51f7WjR3A-44">
          <mxGeometry relative="1" as="geometry">
            <mxPoint x="-1900.0194117647054" y="2839" as="sourcePoint" />
            <mxPoint x="-2283.996722689076" y="2863.9411764705883" as="targetPoint" />
            <Array as="points">
              <mxPoint x="-1900" y="2864" />
            </Array>
          </mxGeometry>
        </mxCell>
        <mxCell id="x2tv8OblZjc51f7WjR3A-66" style="edgeStyle=orthogonalEdgeStyle;rounded=0;orthogonalLoop=1;jettySize=auto;html=1;fontSize=11;entryX=0.5;entryY=0;entryDx=0;entryDy=0;" edge="1" parent="1" source="x2tv8OblZjc51f7WjR3A-62" target="x2tv8OblZjc51f7WjR3A-72">
          <mxGeometry relative="1" as="geometry">
            <mxPoint x="-1898" y="2976" as="targetPoint" />
            <Array as="points">
              <mxPoint x="-2555" y="3059" />
              <mxPoint x="-1896" y="3059" />
            </Array>
          </mxGeometry>
        </mxCell>
        <mxCell id="x2tv8OblZjc51f7WjR3A-62" value="修改区块链" style="whiteSpace=wrap;html=1;rounded=0;" vertex="1" parent="1">
          <mxGeometry x="-2615.06" y="2966" width="120" height="60" as="geometry" />
        </mxCell>
        <mxCell id="x2tv8OblZjc51f7WjR3A-64" value="是" style="text;html=1;align=center;verticalAlign=middle;resizable=0;points=[];autosize=1;strokeColor=none;fillColor=none;fontSize=11;" vertex="1" parent="1">
          <mxGeometry x="-2548.06" y="2928" width="22" height="17" as="geometry" />
        </mxCell>
        <mxCell id="x2tv8OblZjc51f7WjR3A-65" value="修改失败" style="rounded=0;whiteSpace=wrap;html=1;fontSize=11;" vertex="1" parent="1">
          <mxGeometry x="-2777" y="2966" width="120" height="60" as="geometry" />
        </mxCell>
        <mxCell id="x2tv8OblZjc51f7WjR3A-67" value="结束" style="rounded=0;whiteSpace=wrap;html=1;" vertex="1" parent="1">
          <mxGeometry x="-2382" y="3131" width="120" height="60" as="geometry" />
        </mxCell>
        <mxCell id="x2tv8OblZjc51f7WjR3A-68" style="edgeStyle=orthogonalEdgeStyle;rounded=0;orthogonalLoop=1;jettySize=auto;html=1;fontSize=11;" edge="1" parent="1" target="x2tv8OblZjc51f7WjR3A-71">
          <mxGeometry relative="1" as="geometry">
            <mxPoint x="-2124" y="2981" as="targetPoint" />
            <mxPoint x="-2717.1111111111113" y="3026" as="sourcePoint" />
            <Array as="points">
              <mxPoint x="-2717" y="3059" />
              <mxPoint x="-2109" y="3059" />
            </Array>
          </mxGeometry>
        </mxCell>
        <mxCell id="x2tv8OblZjc51f7WjR3A-69" value="通知用户" style="text;html=1;align=center;verticalAlign=middle;resizable=0;points=[];autosize=1;strokeColor=none;fillColor=none;fontSize=11;" vertex="1" parent="1">
          <mxGeometry x="-2584.06" y="3083" width="58" height="17" as="geometry" />
        </mxCell>
        <mxCell id="x2tv8OblZjc51f7WjR3A-71" value="结束" style="rounded=0;whiteSpace=wrap;html=1;" vertex="1" parent="1">
          <mxGeometry x="-2169.5" y="3131" width="120" height="60" as="geometry" />
        </mxCell>
        <mxCell id="x2tv8OblZjc51f7WjR3A-72" value="结束" style="rounded=0;whiteSpace=wrap;html=1;" vertex="1" parent="1">
          <mxGeometry x="-1956" y="3128" width="120" height="60" as="geometry" />
        </mxCell>
        <mxCell id="x2tv8OblZjc51f7WjR3A-73" style="edgeStyle=orthogonalEdgeStyle;rounded=0;orthogonalLoop=1;jettySize=auto;html=1;fontSize=11;" edge="1" parent="1">
          <mxGeometry relative="1" as="geometry">
            <mxPoint x="-2322" y="3129" as="targetPoint" />
            <mxPoint x="-2717" y="3024" as="sourcePoint" />
            <Array as="points">
              <mxPoint x="-2717" y="3059" />
              <mxPoint x="-2322" y="3059" />
            </Array>
          </mxGeometry>
        </mxCell>
        <mxCell id="x2tv8OblZjc51f7WjR3A-75" value="区块链修改流程图" style="text;html=1;align=center;verticalAlign=middle;resizable=0;points=[];autosize=1;strokeColor=none;fillColor=none;fontSize=27;fontColor=default;" vertex="1" parent="1">
          <mxGeometry x="-2330.5" y="3283" width="226" height="36" as="geometry" />
        </mxCell>
      </root>
    </mxGraphModel>
  </diagram>
</mxfile>
